<?xml version="1.0" encoding="utf-8" standalone="no"?>
<!DOCTYPE svg PUBLIC "-//W3C//DTD SVG 1.1//EN"
  "http://www.w3.org/Graphics/SVG/1.1/DTD/svg11.dtd">
<!-- Created with matplotlib (https://matplotlib.org/) -->
<svg height="288pt" version="1.1" viewBox="0 0 432 288" width="432pt" xmlns="http://www.w3.org/2000/svg" xmlns:xlink="http://www.w3.org/1999/xlink">
 <defs>
  <style type="text/css">
*{stroke-linecap:butt;stroke-linejoin:round;}
  </style>
 </defs>
 <g id="figure_1">
  <g id="patch_1">
   <path d="M 0 288 
L 432 288 
L 432 0 
L 0 0 
z
" style="fill:#ffffff;"/>
  </g>
  <g id="axes_1">
   <g id="patch_2">
    <path d="M 55.097856 255.345354 
L 254.375354 255.345354 
L 254.375354 2.834646 
L 55.097856 2.834646 
z
" style="fill:#ffffff;"/>
   </g>
   <g id="matplotlib.axis_1">
    <g id="xtick_1">
     <g id="line2d_1">
      <path clip-path="url(#p9eacfde1b3)" d="M 60.64374 255.345354 
L 60.64374 2.834646 
" style="fill:none;stroke:#000000;stroke-linecap:square;stroke-opacity:0.1;stroke-width:0.5;"/>
     </g>
     <g id="line2d_2">
      <defs>
       <path d="M 0 0 
L 0 -3.5 
" id="m2623b6f573" style="stroke:#000000;stroke-width:0.5;"/>
      </defs>
      <g>
       <use style="stroke:#000000;stroke-width:0.5;" x="60.64374" xlink:href="#m2623b6f573" y="255.345354"/>
      </g>
     </g>
     <g id="text_1">
      <!-- $0$ -->
      <defs>
       <path d="M 31.78125 66.40625 
Q 24.171875 66.40625 20.328125 58.90625 
Q 16.5 51.421875 16.5 36.375 
Q 16.5 21.390625 20.328125 13.890625 
Q 24.171875 6.390625 31.78125 6.390625 
Q 39.453125 6.390625 43.28125 13.890625 
Q 47.125 21.390625 47.125 36.375 
Q 47.125 51.421875 43.28125 58.90625 
Q 39.453125 66.40625 31.78125 66.40625 
z
M 31.78125 74.21875 
Q 44.046875 74.21875 50.515625 64.515625 
Q 56.984375 54.828125 56.984375 36.375 
Q 56.984375 17.96875 50.515625 8.265625 
Q 44.046875 -1.421875 31.78125 -1.421875 
Q 19.53125 -1.421875 13.0625 8.265625 
Q 6.59375 17.96875 6.59375 36.375 
Q 6.59375 54.828125 13.0625 64.515625 
Q 19.53125 74.21875 31.78125 74.21875 
z
" id="DejaVuSans-48"/>
      </defs>
      <g transform="translate(56.80374 267.963479)scale(0.12 -0.12)">
       <use transform="translate(0 0.78125)" xlink:href="#DejaVuSans-48"/>
      </g>
     </g>
    </g>
    <g id="xtick_2">
     <g id="line2d_3">
      <path clip-path="url(#p9eacfde1b3)" d="M 107.666661 255.345354 
L 107.666661 2.834646 
" style="fill:none;stroke:#000000;stroke-linecap:square;stroke-opacity:0.1;stroke-width:0.5;"/>
     </g>
     <g id="line2d_4">
      <g>
       <use style="stroke:#000000;stroke-width:0.5;" x="107.666661" xlink:href="#m2623b6f573" y="255.345354"/>
      </g>
     </g>
     <g id="text_2">
      <!-- $500$ -->
      <defs>
       <path d="M 10.796875 72.90625 
L 49.515625 72.90625 
L 49.515625 64.59375 
L 19.828125 64.59375 
L 19.828125 46.734375 
Q 21.96875 47.46875 24.109375 47.828125 
Q 26.265625 48.1875 28.421875 48.1875 
Q 40.625 48.1875 47.75 41.5 
Q 54.890625 34.8125 54.890625 23.390625 
Q 54.890625 11.625 47.5625 5.09375 
Q 40.234375 -1.421875 26.90625 -1.421875 
Q 22.3125 -1.421875 17.546875 -0.640625 
Q 12.796875 0.140625 7.71875 1.703125 
L 7.71875 11.625 
Q 12.109375 9.234375 16.796875 8.0625 
Q 21.484375 6.890625 26.703125 6.890625 
Q 35.15625 6.890625 40.078125 11.328125 
Q 45.015625 15.765625 45.015625 23.390625 
Q 45.015625 31 40.078125 35.4375 
Q 35.15625 39.890625 26.703125 39.890625 
Q 22.75 39.890625 18.8125 39.015625 
Q 14.890625 38.140625 10.796875 36.28125 
z
" id="DejaVuSans-53"/>
      </defs>
      <g transform="translate(96.206661 267.963479)scale(0.12 -0.12)">
       <use transform="translate(0 0.78125)" xlink:href="#DejaVuSans-53"/>
       <use transform="translate(63.623047 0.78125)" xlink:href="#DejaVuSans-48"/>
       <use transform="translate(127.246094 0.78125)" xlink:href="#DejaVuSans-48"/>
      </g>
     </g>
    </g>
    <g id="xtick_3">
     <g id="line2d_5">
      <path clip-path="url(#p9eacfde1b3)" d="M 154.689582 255.345354 
L 154.689582 2.834646 
" style="fill:none;stroke:#000000;stroke-linecap:square;stroke-opacity:0.1;stroke-width:0.5;"/>
     </g>
     <g id="line2d_6">
      <g>
       <use style="stroke:#000000;stroke-width:0.5;" x="154.689582" xlink:href="#m2623b6f573" y="255.345354"/>
      </g>
     </g>
     <g id="text_3">
      <!-- $1000$ -->
      <defs>
       <path d="M 12.40625 8.296875 
L 28.515625 8.296875 
L 28.515625 63.921875 
L 10.984375 60.40625 
L 10.984375 69.390625 
L 28.421875 72.90625 
L 38.28125 72.90625 
L 38.28125 8.296875 
L 54.390625 8.296875 
L 54.390625 0 
L 12.40625 0 
z
" id="DejaVuSans-49"/>
      </defs>
      <g transform="translate(139.389582 267.963479)scale(0.12 -0.12)">
       <use transform="translate(0 0.78125)" xlink:href="#DejaVuSans-49"/>
       <use transform="translate(63.623047 0.78125)" xlink:href="#DejaVuSans-48"/>
       <use transform="translate(127.246094 0.78125)" xlink:href="#DejaVuSans-48"/>
       <use transform="translate(190.869141 0.78125)" xlink:href="#DejaVuSans-48"/>
      </g>
     </g>
    </g>
    <g id="xtick_4">
     <g id="line2d_7">
      <path clip-path="url(#p9eacfde1b3)" d="M 201.712504 255.345354 
L 201.712504 2.834646 
" style="fill:none;stroke:#000000;stroke-linecap:square;stroke-opacity:0.1;stroke-width:0.5;"/>
     </g>
     <g id="line2d_8">
      <g>
       <use style="stroke:#000000;stroke-width:0.5;" x="201.712504" xlink:href="#m2623b6f573" y="255.345354"/>
      </g>
     </g>
     <g id="text_4">
      <!-- $1500$ -->
      <g transform="translate(186.412504 267.963479)scale(0.12 -0.12)">
       <use transform="translate(0 0.78125)" xlink:href="#DejaVuSans-49"/>
       <use transform="translate(63.623047 0.78125)" xlink:href="#DejaVuSans-53"/>
       <use transform="translate(127.246094 0.78125)" xlink:href="#DejaVuSans-48"/>
       <use transform="translate(190.869141 0.78125)" xlink:href="#DejaVuSans-48"/>
      </g>
     </g>
    </g>
    <g id="xtick_5">
     <g id="line2d_9">
      <path clip-path="url(#p9eacfde1b3)" d="M 248.735425 255.345354 
L 248.735425 2.834646 
" style="fill:none;stroke:#000000;stroke-linecap:square;stroke-opacity:0.1;stroke-width:0.5;"/>
     </g>
     <g id="line2d_10">
      <g>
       <use style="stroke:#000000;stroke-width:0.5;" x="248.735425" xlink:href="#m2623b6f573" y="255.345354"/>
      </g>
     </g>
     <g id="text_5">
      <!-- $2000$ -->
      <defs>
       <path d="M 19.1875 8.296875 
L 53.609375 8.296875 
L 53.609375 0 
L 7.328125 0 
L 7.328125 8.296875 
Q 12.9375 14.109375 22.625 23.890625 
Q 32.328125 33.6875 34.8125 36.53125 
Q 39.546875 41.84375 41.421875 45.53125 
Q 43.3125 49.21875 43.3125 52.78125 
Q 43.3125 58.59375 39.234375 62.25 
Q 35.15625 65.921875 28.609375 65.921875 
Q 23.96875 65.921875 18.8125 64.3125 
Q 13.671875 62.703125 7.8125 59.421875 
L 7.8125 69.390625 
Q 13.765625 71.78125 18.9375 73 
Q 24.125 74.21875 28.421875 74.21875 
Q 39.75 74.21875 46.484375 68.546875 
Q 53.21875 62.890625 53.21875 53.421875 
Q 53.21875 48.921875 51.53125 44.890625 
Q 49.859375 40.875 45.40625 35.40625 
Q 44.1875 33.984375 37.640625 27.21875 
Q 31.109375 20.453125 19.1875 8.296875 
z
" id="DejaVuSans-50"/>
      </defs>
      <g transform="translate(233.435425 267.963479)scale(0.12 -0.12)">
       <use transform="translate(0 0.78125)" xlink:href="#DejaVuSans-50"/>
       <use transform="translate(63.623047 0.78125)" xlink:href="#DejaVuSans-48"/>
       <use transform="translate(127.246094 0.78125)" xlink:href="#DejaVuSans-48"/>
       <use transform="translate(190.869141 0.78125)" xlink:href="#DejaVuSans-48"/>
      </g>
     </g>
    </g>
    <g id="text_6">
     <!-- Iteration # -->
     <defs>
      <path d="M 9.8125 72.90625 
L 19.671875 72.90625 
L 19.671875 0 
L 9.8125 0 
z
" id="DejaVuSans-73"/>
      <path d="M 18.3125 70.21875 
L 18.3125 54.6875 
L 36.8125 54.6875 
L 36.8125 47.703125 
L 18.3125 47.703125 
L 18.3125 18.015625 
Q 18.3125 11.328125 20.140625 9.421875 
Q 21.96875 7.515625 27.59375 7.515625 
L 36.8125 7.515625 
L 36.8125 0 
L 27.59375 0 
Q 17.1875 0 13.234375 3.875 
Q 9.28125 7.765625 9.28125 18.015625 
L 9.28125 47.703125 
L 2.6875 47.703125 
L 2.6875 54.6875 
L 9.28125 54.6875 
L 9.28125 70.21875 
z
" id="DejaVuSans-116"/>
      <path d="M 56.203125 29.59375 
L 56.203125 25.203125 
L 14.890625 25.203125 
Q 15.484375 15.921875 20.484375 11.0625 
Q 25.484375 6.203125 34.421875 6.203125 
Q 39.59375 6.203125 44.453125 7.46875 
Q 49.3125 8.734375 54.109375 11.28125 
L 54.109375 2.78125 
Q 49.265625 0.734375 44.1875 -0.34375 
Q 39.109375 -1.421875 33.890625 -1.421875 
Q 20.796875 -1.421875 13.15625 6.1875 
Q 5.515625 13.8125 5.515625 26.8125 
Q 5.515625 40.234375 12.765625 48.109375 
Q 20.015625 56 32.328125 56 
Q 43.359375 56 49.78125 48.890625 
Q 56.203125 41.796875 56.203125 29.59375 
z
M 47.21875 32.234375 
Q 47.125 39.59375 43.09375 43.984375 
Q 39.0625 48.390625 32.421875 48.390625 
Q 24.90625 48.390625 20.390625 44.140625 
Q 15.875 39.890625 15.1875 32.171875 
z
" id="DejaVuSans-101"/>
      <path d="M 41.109375 46.296875 
Q 39.59375 47.171875 37.8125 47.578125 
Q 36.03125 48 33.890625 48 
Q 26.265625 48 22.1875 43.046875 
Q 18.109375 38.09375 18.109375 28.8125 
L 18.109375 0 
L 9.078125 0 
L 9.078125 54.6875 
L 18.109375 54.6875 
L 18.109375 46.1875 
Q 20.953125 51.171875 25.484375 53.578125 
Q 30.03125 56 36.53125 56 
Q 37.453125 56 38.578125 55.875 
Q 39.703125 55.765625 41.0625 55.515625 
z
" id="DejaVuSans-114"/>
      <path d="M 34.28125 27.484375 
Q 23.390625 27.484375 19.1875 25 
Q 14.984375 22.515625 14.984375 16.5 
Q 14.984375 11.71875 18.140625 8.90625 
Q 21.296875 6.109375 26.703125 6.109375 
Q 34.1875 6.109375 38.703125 11.40625 
Q 43.21875 16.703125 43.21875 25.484375 
L 43.21875 27.484375 
z
M 52.203125 31.203125 
L 52.203125 0 
L 43.21875 0 
L 43.21875 8.296875 
Q 40.140625 3.328125 35.546875 0.953125 
Q 30.953125 -1.421875 24.3125 -1.421875 
Q 15.921875 -1.421875 10.953125 3.296875 
Q 6 8.015625 6 15.921875 
Q 6 25.140625 12.171875 29.828125 
Q 18.359375 34.515625 30.609375 34.515625 
L 43.21875 34.515625 
L 43.21875 35.40625 
Q 43.21875 41.609375 39.140625 45 
Q 35.0625 48.390625 27.6875 48.390625 
Q 23 48.390625 18.546875 47.265625 
Q 14.109375 46.140625 10.015625 43.890625 
L 10.015625 52.203125 
Q 14.9375 54.109375 19.578125 55.046875 
Q 24.21875 56 28.609375 56 
Q 40.484375 56 46.34375 49.84375 
Q 52.203125 43.703125 52.203125 31.203125 
z
" id="DejaVuSans-97"/>
      <path d="M 9.421875 54.6875 
L 18.40625 54.6875 
L 18.40625 0 
L 9.421875 0 
z
M 9.421875 75.984375 
L 18.40625 75.984375 
L 18.40625 64.59375 
L 9.421875 64.59375 
z
" id="DejaVuSans-105"/>
      <path d="M 30.609375 48.390625 
Q 23.390625 48.390625 19.1875 42.75 
Q 14.984375 37.109375 14.984375 27.296875 
Q 14.984375 17.484375 19.15625 11.84375 
Q 23.34375 6.203125 30.609375 6.203125 
Q 37.796875 6.203125 41.984375 11.859375 
Q 46.1875 17.53125 46.1875 27.296875 
Q 46.1875 37.015625 41.984375 42.703125 
Q 37.796875 48.390625 30.609375 48.390625 
z
M 30.609375 56 
Q 42.328125 56 49.015625 48.375 
Q 55.71875 40.765625 55.71875 27.296875 
Q 55.71875 13.875 49.015625 6.21875 
Q 42.328125 -1.421875 30.609375 -1.421875 
Q 18.84375 -1.421875 12.171875 6.21875 
Q 5.515625 13.875 5.515625 27.296875 
Q 5.515625 40.765625 12.171875 48.375 
Q 18.84375 56 30.609375 56 
z
" id="DejaVuSans-111"/>
      <path d="M 54.890625 33.015625 
L 54.890625 0 
L 45.90625 0 
L 45.90625 32.71875 
Q 45.90625 40.484375 42.875 44.328125 
Q 39.84375 48.1875 33.796875 48.1875 
Q 26.515625 48.1875 22.3125 43.546875 
Q 18.109375 38.921875 18.109375 30.90625 
L 18.109375 0 
L 9.078125 0 
L 9.078125 54.6875 
L 18.109375 54.6875 
L 18.109375 46.1875 
Q 21.34375 51.125 25.703125 53.5625 
Q 30.078125 56 35.796875 56 
Q 45.21875 56 50.046875 50.171875 
Q 54.890625 44.34375 54.890625 33.015625 
z
" id="DejaVuSans-110"/>
      <path id="DejaVuSans-32"/>
      <path d="M 51.125 44 
L 36.921875 44 
L 32.8125 27.6875 
L 47.125 27.6875 
z
M 43.796875 71.78125 
L 38.71875 51.515625 
L 52.984375 51.515625 
L 58.109375 71.78125 
L 65.921875 71.78125 
L 60.890625 51.515625 
L 76.125 51.515625 
L 76.125 44 
L 58.984375 44 
L 54.984375 27.6875 
L 70.515625 27.6875 
L 70.515625 20.21875 
L 53.078125 20.21875 
L 48 0 
L 40.1875 0 
L 45.21875 20.21875 
L 30.90625 20.21875 
L 25.875 0 
L 18.015625 0 
L 23.09375 20.21875 
L 7.71875 20.21875 
L 7.71875 27.6875 
L 24.90625 27.6875 
L 29 44 
L 13.28125 44 
L 13.28125 51.515625 
L 30.90625 51.515625 
L 35.890625 71.78125 
z
" id="DejaVuSans-35"/>
     </defs>
     <g transform="translate(122.351605 283.577229)scale(0.12 -0.12)">
      <use xlink:href="#DejaVuSans-73"/>
      <use x="29.492188" xlink:href="#DejaVuSans-116"/>
      <use x="68.701172" xlink:href="#DejaVuSans-101"/>
      <use x="130.224609" xlink:href="#DejaVuSans-114"/>
      <use x="171.337891" xlink:href="#DejaVuSans-97"/>
      <use x="232.617188" xlink:href="#DejaVuSans-116"/>
      <use x="271.826172" xlink:href="#DejaVuSans-105"/>
      <use x="299.609375" xlink:href="#DejaVuSans-111"/>
      <use x="360.791016" xlink:href="#DejaVuSans-110"/>
      <use x="424.169922" xlink:href="#DejaVuSans-32"/>
      <use x="455.957031" xlink:href="#DejaVuSans-35"/>
     </g>
    </g>
   </g>
   <g id="matplotlib.axis_2">
    <g id="ytick_1">
     <g id="line2d_11">
      <path clip-path="url(#p9eacfde1b3)" d="M 55.097856 246.113433 
L 254.375354 246.113433 
" style="fill:none;stroke:#000000;stroke-linecap:square;stroke-opacity:0.1;stroke-width:0.5;"/>
     </g>
     <g id="line2d_12">
      <defs>
       <path d="M 0 0 
L 3.5 0 
" id="m0249d13a9c" style="stroke:#000000;stroke-width:0.5;"/>
      </defs>
      <g>
       <use style="stroke:#000000;stroke-width:0.5;" x="55.097856" xlink:href="#m0249d13a9c" y="246.113433"/>
      </g>
     </g>
     <g id="text_7">
      <!-- $10^{-10}$ -->
      <defs>
       <path d="M 10.59375 35.5 
L 73.1875 35.5 
L 73.1875 27.203125 
L 10.59375 27.203125 
z
" id="DejaVuSans-8722"/>
      </defs>
      <g transform="translate(18.117856 250.672496)scale(0.12 -0.12)">
       <use transform="translate(0 0.765625)" xlink:href="#DejaVuSans-49"/>
       <use transform="translate(63.623047 0.765625)" xlink:href="#DejaVuSans-48"/>
       <use transform="translate(128.203125 39.046875)scale(0.7)" xlink:href="#DejaVuSans-8722"/>
       <use transform="translate(186.855469 39.046875)scale(0.7)" xlink:href="#DejaVuSans-49"/>
       <use transform="translate(231.391602 39.046875)scale(0.7)" xlink:href="#DejaVuSans-48"/>
      </g>
     </g>
    </g>
    <g id="ytick_2">
     <g id="line2d_13">
      <path clip-path="url(#p9eacfde1b3)" d="M 55.097856 177.17467 
L 254.375354 177.17467 
" style="fill:none;stroke:#000000;stroke-linecap:square;stroke-opacity:0.1;stroke-width:0.5;"/>
     </g>
     <g id="line2d_14">
      <g>
       <use style="stroke:#000000;stroke-width:0.5;" x="55.097856" xlink:href="#m0249d13a9c" y="177.17467"/>
      </g>
     </g>
     <g id="text_8">
      <!-- $10^{-5}$ -->
      <g transform="translate(23.397856 181.733733)scale(0.12 -0.12)">
       <use transform="translate(0 0.684375)" xlink:href="#DejaVuSans-49"/>
       <use transform="translate(63.623047 0.684375)" xlink:href="#DejaVuSans-48"/>
       <use transform="translate(128.203125 38.965625)scale(0.7)" xlink:href="#DejaVuSans-8722"/>
       <use transform="translate(186.855469 38.965625)scale(0.7)" xlink:href="#DejaVuSans-53"/>
      </g>
     </g>
    </g>
    <g id="ytick_3">
     <g id="line2d_15">
      <path clip-path="url(#p9eacfde1b3)" d="M 55.097856 108.235908 
L 254.375354 108.235908 
" style="fill:none;stroke:#000000;stroke-linecap:square;stroke-opacity:0.1;stroke-width:0.5;"/>
     </g>
     <g id="line2d_16">
      <g>
       <use style="stroke:#000000;stroke-width:0.5;" x="55.097856" xlink:href="#m0249d13a9c" y="108.235908"/>
      </g>
     </g>
     <g id="text_9">
      <!-- $10^{0}$ -->
      <g transform="translate(30.477856 112.79497)scale(0.12 -0.12)">
       <use transform="translate(0 0.765625)" xlink:href="#DejaVuSans-49"/>
       <use transform="translate(63.623047 0.765625)" xlink:href="#DejaVuSans-48"/>
       <use transform="translate(128.203125 39.046875)scale(0.7)" xlink:href="#DejaVuSans-48"/>
      </g>
     </g>
    </g>
    <g id="ytick_4">
     <g id="line2d_17">
      <path clip-path="url(#p9eacfde1b3)" d="M 55.097856 39.297145 
L 254.375354 39.297145 
" style="fill:none;stroke:#000000;stroke-linecap:square;stroke-opacity:0.1;stroke-width:0.5;"/>
     </g>
     <g id="line2d_18">
      <g>
       <use style="stroke:#000000;stroke-width:0.5;" x="55.097856" xlink:href="#m0249d13a9c" y="39.297145"/>
      </g>
     </g>
     <g id="text_10">
      <!-- $10^{5}$ -->
      <g transform="translate(30.477856 43.856207)scale(0.12 -0.12)">
       <use transform="translate(0 0.684375)" xlink:href="#DejaVuSans-49"/>
       <use transform="translate(63.623047 0.684375)" xlink:href="#DejaVuSans-48"/>
       <use transform="translate(128.203125 38.965625)scale(0.7)" xlink:href="#DejaVuSans-53"/>
      </g>
     </g>
    </g>
    <g id="ytick_5">
     <g id="line2d_19">
      <defs>
       <path d="M 0 0 
L -2 0 
" id="m1cddd383e5" style="stroke:#000000;stroke-width:0.6;"/>
      </defs>
      <g>
       <use style="stroke:#000000;stroke-width:0.6;" x="55.097856" xlink:href="#m1cddd383e5" y="232.325681"/>
      </g>
     </g>
    </g>
    <g id="ytick_6">
     <g id="line2d_20">
      <g>
       <use style="stroke:#000000;stroke-width:0.6;" x="55.097856" xlink:href="#m1cddd383e5" y="218.537928"/>
      </g>
     </g>
    </g>
    <g id="ytick_7">
     <g id="line2d_21">
      <g>
       <use style="stroke:#000000;stroke-width:0.6;" x="55.097856" xlink:href="#m1cddd383e5" y="204.750176"/>
      </g>
     </g>
    </g>
    <g id="ytick_8">
     <g id="line2d_22">
      <g>
       <use style="stroke:#000000;stroke-width:0.6;" x="55.097856" xlink:href="#m1cddd383e5" y="190.962423"/>
      </g>
     </g>
    </g>
    <g id="ytick_9">
     <g id="line2d_23">
      <g>
       <use style="stroke:#000000;stroke-width:0.6;" x="55.097856" xlink:href="#m1cddd383e5" y="163.386918"/>
      </g>
     </g>
    </g>
    <g id="ytick_10">
     <g id="line2d_24">
      <g>
       <use style="stroke:#000000;stroke-width:0.6;" x="55.097856" xlink:href="#m1cddd383e5" y="149.599165"/>
      </g>
     </g>
    </g>
    <g id="ytick_11">
     <g id="line2d_25">
      <g>
       <use style="stroke:#000000;stroke-width:0.6;" x="55.097856" xlink:href="#m1cddd383e5" y="135.811413"/>
      </g>
     </g>
    </g>
    <g id="ytick_12">
     <g id="line2d_26">
      <g>
       <use style="stroke:#000000;stroke-width:0.6;" x="55.097856" xlink:href="#m1cddd383e5" y="122.02366"/>
      </g>
     </g>
    </g>
    <g id="ytick_13">
     <g id="line2d_27">
      <g>
       <use style="stroke:#000000;stroke-width:0.6;" x="55.097856" xlink:href="#m1cddd383e5" y="94.448155"/>
      </g>
     </g>
    </g>
    <g id="ytick_14">
     <g id="line2d_28">
      <g>
       <use style="stroke:#000000;stroke-width:0.6;" x="55.097856" xlink:href="#m1cddd383e5" y="80.660402"/>
      </g>
     </g>
    </g>
    <g id="ytick_15">
     <g id="line2d_29">
      <g>
       <use style="stroke:#000000;stroke-width:0.6;" x="55.097856" xlink:href="#m1cddd383e5" y="66.87265"/>
      </g>
     </g>
    </g>
    <g id="ytick_16">
     <g id="line2d_30">
      <g>
       <use style="stroke:#000000;stroke-width:0.6;" x="55.097856" xlink:href="#m1cddd383e5" y="53.084897"/>
      </g>
     </g>
    </g>
    <g id="ytick_17">
     <g id="line2d_31">
      <g>
       <use style="stroke:#000000;stroke-width:0.6;" x="55.097856" xlink:href="#m1cddd383e5" y="25.509392"/>
      </g>
     </g>
    </g>
    <g id="ytick_18">
     <g id="line2d_32">
      <g>
       <use style="stroke:#000000;stroke-width:0.6;" x="55.097856" xlink:href="#m1cddd383e5" y="11.72164"/>
      </g>
     </g>
    </g>
    <g id="text_11">
     <!-- Residual norm -->
     <defs>
      <path d="M 44.390625 34.1875 
Q 47.5625 33.109375 50.5625 29.59375 
Q 53.5625 26.078125 56.59375 19.921875 
L 66.609375 0 
L 56 0 
L 46.6875 18.703125 
Q 43.0625 26.03125 39.671875 28.421875 
Q 36.28125 30.8125 30.421875 30.8125 
L 19.671875 30.8125 
L 19.671875 0 
L 9.8125 0 
L 9.8125 72.90625 
L 32.078125 72.90625 
Q 44.578125 72.90625 50.734375 67.671875 
Q 56.890625 62.453125 56.890625 51.90625 
Q 56.890625 45.015625 53.6875 40.46875 
Q 50.484375 35.9375 44.390625 34.1875 
z
M 19.671875 64.796875 
L 19.671875 38.921875 
L 32.078125 38.921875 
Q 39.203125 38.921875 42.84375 42.21875 
Q 46.484375 45.515625 46.484375 51.90625 
Q 46.484375 58.296875 42.84375 61.546875 
Q 39.203125 64.796875 32.078125 64.796875 
z
" id="DejaVuSans-82"/>
      <path d="M 44.28125 53.078125 
L 44.28125 44.578125 
Q 40.484375 46.53125 36.375 47.5 
Q 32.28125 48.484375 27.875 48.484375 
Q 21.1875 48.484375 17.84375 46.4375 
Q 14.5 44.390625 14.5 40.28125 
Q 14.5 37.15625 16.890625 35.375 
Q 19.28125 33.59375 26.515625 31.984375 
L 29.59375 31.296875 
Q 39.15625 29.25 43.1875 25.515625 
Q 47.21875 21.78125 47.21875 15.09375 
Q 47.21875 7.46875 41.1875 3.015625 
Q 35.15625 -1.421875 24.609375 -1.421875 
Q 20.21875 -1.421875 15.453125 -0.5625 
Q 10.6875 0.296875 5.421875 2 
L 5.421875 11.28125 
Q 10.40625 8.6875 15.234375 7.390625 
Q 20.0625 6.109375 24.8125 6.109375 
Q 31.15625 6.109375 34.5625 8.28125 
Q 37.984375 10.453125 37.984375 14.40625 
Q 37.984375 18.0625 35.515625 20.015625 
Q 33.0625 21.96875 24.703125 23.78125 
L 21.578125 24.515625 
Q 13.234375 26.265625 9.515625 29.90625 
Q 5.8125 33.546875 5.8125 39.890625 
Q 5.8125 47.609375 11.28125 51.796875 
Q 16.75 56 26.8125 56 
Q 31.78125 56 36.171875 55.265625 
Q 40.578125 54.546875 44.28125 53.078125 
z
" id="DejaVuSans-115"/>
      <path d="M 45.40625 46.390625 
L 45.40625 75.984375 
L 54.390625 75.984375 
L 54.390625 0 
L 45.40625 0 
L 45.40625 8.203125 
Q 42.578125 3.328125 38.25 0.953125 
Q 33.9375 -1.421875 27.875 -1.421875 
Q 17.96875 -1.421875 11.734375 6.484375 
Q 5.515625 14.40625 5.515625 27.296875 
Q 5.515625 40.1875 11.734375 48.09375 
Q 17.96875 56 27.875 56 
Q 33.9375 56 38.25 53.625 
Q 42.578125 51.265625 45.40625 46.390625 
z
M 14.796875 27.296875 
Q 14.796875 17.390625 18.875 11.75 
Q 22.953125 6.109375 30.078125 6.109375 
Q 37.203125 6.109375 41.296875 11.75 
Q 45.40625 17.390625 45.40625 27.296875 
Q 45.40625 37.203125 41.296875 42.84375 
Q 37.203125 48.484375 30.078125 48.484375 
Q 22.953125 48.484375 18.875 42.84375 
Q 14.796875 37.203125 14.796875 27.296875 
z
" id="DejaVuSans-100"/>
      <path d="M 8.5 21.578125 
L 8.5 54.6875 
L 17.484375 54.6875 
L 17.484375 21.921875 
Q 17.484375 14.15625 20.5 10.265625 
Q 23.53125 6.390625 29.59375 6.390625 
Q 36.859375 6.390625 41.078125 11.03125 
Q 45.3125 15.671875 45.3125 23.6875 
L 45.3125 54.6875 
L 54.296875 54.6875 
L 54.296875 0 
L 45.3125 0 
L 45.3125 8.40625 
Q 42.046875 3.421875 37.71875 1 
Q 33.40625 -1.421875 27.6875 -1.421875 
Q 18.265625 -1.421875 13.375 4.4375 
Q 8.5 10.296875 8.5 21.578125 
z
M 31.109375 56 
z
" id="DejaVuSans-117"/>
      <path d="M 9.421875 75.984375 
L 18.40625 75.984375 
L 18.40625 0 
L 9.421875 0 
z
" id="DejaVuSans-108"/>
      <path d="M 52 44.1875 
Q 55.375 50.25 60.0625 53.125 
Q 64.75 56 71.09375 56 
Q 79.640625 56 84.28125 50.015625 
Q 88.921875 44.046875 88.921875 33.015625 
L 88.921875 0 
L 79.890625 0 
L 79.890625 32.71875 
Q 79.890625 40.578125 77.09375 44.375 
Q 74.3125 48.1875 68.609375 48.1875 
Q 61.625 48.1875 57.5625 43.546875 
Q 53.515625 38.921875 53.515625 30.90625 
L 53.515625 0 
L 44.484375 0 
L 44.484375 32.71875 
Q 44.484375 40.625 41.703125 44.40625 
Q 38.921875 48.1875 33.109375 48.1875 
Q 26.21875 48.1875 22.15625 43.53125 
Q 18.109375 38.875 18.109375 30.90625 
L 18.109375 0 
L 9.078125 0 
L 9.078125 54.6875 
L 18.109375 54.6875 
L 18.109375 46.1875 
Q 21.1875 51.21875 25.484375 53.609375 
Q 29.78125 56 35.6875 56 
Q 41.65625 56 45.828125 52.96875 
Q 50 49.953125 52 44.1875 
z
" id="DejaVuSans-109"/>
     </defs>
     <g transform="translate(11.622231 172.015312)rotate(-90)scale(0.12 -0.12)">
      <use xlink:href="#DejaVuSans-82"/>
      <use x="64.982422" xlink:href="#DejaVuSans-101"/>
      <use x="126.505859" xlink:href="#DejaVuSans-115"/>
      <use x="178.605469" xlink:href="#DejaVuSans-105"/>
      <use x="206.388672" xlink:href="#DejaVuSans-100"/>
      <use x="269.865234" xlink:href="#DejaVuSans-117"/>
      <use x="333.244141" xlink:href="#DejaVuSans-97"/>
      <use x="394.523438" xlink:href="#DejaVuSans-108"/>
      <use x="422.306641" xlink:href="#DejaVuSans-32"/>
      <use x="454.09375" xlink:href="#DejaVuSans-110"/>
      <use x="517.472656" xlink:href="#DejaVuSans-111"/>
      <use x="578.654297" xlink:href="#DejaVuSans-114"/>
      <use x="618.017578" xlink:href="#DejaVuSans-109"/>
     </g>
    </g>
   </g>
   <g id="line2d_33">
    <path clip-path="url(#p9eacfde1b3)" d="M 60.737786 36.667245 
L 61.584198 36.667245 
L 61.77229 42.835148 
L 62.524657 42.835148 
L 62.712748 46.454389 
L 63.465115 46.454389 
L 63.653207 49.025926 
L 64.405574 49.025926 
L 64.593665 51.022299 
L 65.346032 51.022299 
L 65.534124 52.654422 
L 66.28649 52.654422 
L 66.474582 54.034958 
L 67.226949 54.034958 
L 67.41504 55.231227 
L 68.167407 55.231227 
L 68.355499 56.286683 
L 69.107866 56.286683 
L 69.295957 57.231019 
L 70.048324 57.231019 
L 70.236416 58.085423 
L 70.988782 58.085423 
L 71.176874 58.865545 
L 71.929241 58.865545 
L 72.117333 59.583277 
L 72.869699 59.583277 
L 73.057791 60.247864 
L 73.810158 60.247864 
L 73.998249 60.866638 
L 74.750616 60.866638 
L 74.938708 61.44551 
L 75.691075 61.44551 
L 75.879166 61.989316 
L 76.631533 61.989316 
L 76.819625 62.502065 
L 77.571991 62.502065 
L 77.760083 62.987111 
L 78.51245 62.987111 
L 78.700542 63.447298 
L 79.452908 63.447298 
L 79.641 63.885048 
L 80.393367 63.885048 
L 80.581458 64.30245 
L 81.333825 64.30245 
L 81.521917 64.70131 
L 82.274284 64.70131 
L 82.462375 65.083207 
L 83.214742 65.083207 
L 83.402834 65.449525 
L 84.1552 65.449525 
L 84.343292 65.801485 
L 85.095659 65.801485 
L 85.283751 66.140171 
L 86.036117 66.140171 
L 86.224209 66.466547 
L 86.976576 66.466547 
L 87.164667 66.781477 
L 87.917034 66.781477 
L 88.105126 67.085737 
L 88.857493 67.085737 
L 89.045584 67.380026 
L 89.797951 67.380026 
L 89.986043 67.664978 
L 90.738409 67.664978 
L 90.926501 67.941165 
L 91.678868 67.941165 
L 91.86696 68.209112 
L 92.619326 68.209112 
L 92.807418 68.469296 
L 93.559785 68.469296 
L 93.747876 68.722154 
L 94.500243 68.722154 
L 94.688335 68.968087 
L 95.440702 68.968087 
L 95.628793 69.207465 
L 96.38116 69.207465 
L 96.569252 69.440627 
L 97.321618 69.440627 
L 97.50971 69.667889 
L 98.262077 69.667889 
L 98.450169 69.889541 
L 99.202535 69.889541 
L 99.390627 70.105855 
L 100.142994 70.105855 
L 100.331085 70.31708 
L 101.083452 70.31708 
L 101.271544 70.523451 
L 102.023911 70.523451 
L 102.212002 70.725186 
L 102.964369 70.725186 
L 103.152461 70.922489 
L 103.904827 70.922489 
L 104.092919 71.115549 
L 104.845286 71.115549 
L 105.033378 71.304547 
L 105.785744 71.304547 
L 105.973836 71.489648 
L 106.726203 71.489648 
L 106.914294 71.671012 
L 107.666661 71.671012 
L 107.854753 71.848784 
L 108.60712 71.848784 
L 108.795211 72.023106 
L 109.547578 72.023106 
L 109.73567 72.194108 
L 110.488036 72.194108 
L 110.676128 72.361914 
L 111.428495 72.361914 
L 111.616587 72.526642 
L 112.368953 72.526642 
L 112.557045 72.688403 
L 113.309412 72.688403 
L 113.497503 72.847301 
L 114.24987 72.847301 
L 114.437962 73.003436 
L 115.190329 73.003436 
L 115.37842 73.156903 
L 116.130787 73.156903 
L 116.318879 73.307791 
L 117.071245 73.307791 
L 117.259337 73.456185 
L 118.011704 73.456185 
L 118.199796 73.602166 
L 118.952162 73.602166 
L 119.140254 73.745813 
L 119.892621 73.745813 
L 120.080712 73.887197 
L 120.833079 73.887197 
L 121.021171 74.02639 
L 121.773538 74.02639 
L 121.961629 74.163458 
L 122.713996 74.163458 
L 122.902088 74.298465 
L 123.654454 74.298465 
L 123.842546 74.431472 
L 124.594913 74.431472 
L 124.783005 74.562538 
L 125.535371 74.562538 
L 125.723463 74.691718 
L 126.47583 74.691718 
L 126.663921 74.819066 
L 127.416288 74.819066 
L 127.60438 74.944633 
L 128.356747 74.944633 
L 128.544838 75.068468 
L 129.297205 75.068468 
L 129.485297 75.190618 
L 130.237663 75.190618 
L 130.425755 75.311129 
L 131.178122 75.311129 
L 131.366213 75.430044 
L 132.11858 75.430044 
L 132.306672 75.547405 
L 133.059039 75.547405 
L 133.24713 75.663251 
L 133.999497 75.663251 
L 134.187589 75.777622 
L 134.939956 75.777622 
L 135.128047 75.890555 
L 135.880414 75.890555 
L 136.068506 76.002084 
L 137.761331 76.112245 
L 137.949422 76.221071 
L 139.642248 76.328594 
L 139.830339 76.434844 
L 141.523165 76.539852 
L 141.711256 76.643645 
L 143.404081 76.746253 
L 143.592173 76.847701 
L 145.284998 76.948016 
L 145.47309 77.047222 
L 147.165915 77.145344 
L 147.354007 77.242405 
L 149.046832 77.338428 
L 149.234924 77.433435 
L 150.927749 77.527448 
L 151.11584 77.620486 
L 152.808666 77.71257 
L 152.996757 77.803718 
L 154.689582 77.893951 
L 154.877674 77.983286 
L 156.570499 78.071741 
L 156.758591 78.159333 
L 158.451416 78.246078 
L 158.639508 78.331994 
L 160.332333 78.417095 
L 160.520425 78.501396 
L 162.21325 78.584914 
L 162.401342 78.667662 
L 164.094167 78.749654 
L 164.282258 78.830904 
L 165.975084 78.911425 
L 166.163175 78.99123 
L 167.856 79.070333 
L 168.044092 79.148744 
L 169.736917 79.226476 
L 169.925009 79.303541 
L 171.617834 79.37995 
L 171.805926 79.455715 
L 173.498751 79.530845 
L 173.686843 79.605351 
L 175.379668 79.679244 
L 175.56776 79.752534 
L 177.260585 79.825231 
L 177.448676 79.897343 
L 179.141502 79.968881 
L 179.329593 80.039853 
L 181.022418 80.110268 
L 181.21051 80.180135 
L 182.903335 80.249463 
L 183.185473 80.318259 
L 184.784252 80.386532 
L 185.06639 80.45429 
L 186.665169 80.52154 
L 186.947307 80.58829 
L 188.546086 80.654547 
L 188.828223 80.720318 
L 190.427003 80.785611 
L 190.70914 80.850433 
L 192.30792 80.91479 
L 192.590057 80.978688 
L 194.188836 81.042135 
L 194.470974 81.105136 
L 196.069753 81.167699 
L 196.351891 81.229828 
L 197.95067 81.29153 
L 198.232808 81.352811 
L 199.831587 81.413676 
L 200.113724 81.474131 
L 201.712504 81.534181 
L 201.994641 81.593833 
L 203.593421 81.65309 
L 203.875558 81.711959 
L 205.474338 81.770444 
L 205.756475 81.82855 
L 207.355254 81.886283 
L 207.637392 81.943646 
L 209.236171 82.000645 
L 209.518309 82.057285 
L 211.117088 82.113569 
L 211.399226 82.169502 
L 213.938463 82.280333 
L 214.220601 82.335239 
L 216.759839 82.444054 
L 217.041976 82.497971 
L 219.581214 82.604841 
L 219.863351 82.657803 
L 222.402589 82.762797 
L 222.684727 82.814837 
L 225.223964 82.91802 
L 225.506102 82.969169 
L 228.04534 83.070602 
L 228.327477 83.120891 
L 230.866715 83.220632 
L 231.148853 83.270089 
L 233.68809 83.368193 
L 233.970228 83.416846 
L 236.509466 83.513366 
L 236.791603 83.561239 
L 239.330841 83.656225 
L 239.612978 83.703344 
L 242.152216 83.796844 
L 242.434354 83.843231 
L 244.973591 83.935291 
L 245.255729 83.980969 
L 247.794967 84.071631 
L 248.077104 84.116621 
L 248.735425 84.116621 
L 248.735425 84.116621 
" style="fill:none;stroke:#e36f47;stroke-dasharray:3,4.95;stroke-dashoffset:0;stroke-width:3;"/>
   </g>
   <g id="patch_3">
    <path d="M 55.097856 255.345354 
L 55.097856 2.834646 
" style="fill:none;stroke:#000000;stroke-linecap:square;stroke-linejoin:miter;"/>
   </g>
   <g id="patch_4">
    <path d="M 55.097856 255.345354 
L 254.375354 255.345354 
" style="fill:none;stroke:#000000;stroke-linecap:square;stroke-linejoin:miter;"/>
   </g>
   <g id="line2d_34">
    <path clip-path="url(#p9eacfde1b3)" d="M 60.737786 10.080267 
L 61.584198 10.080267 
L 61.77229 13.257045 
L 62.524657 13.257045 
L 62.712748 16.309177 
L 63.465115 16.309177 
L 63.653207 19.305508 
L 64.405574 19.305508 
L 64.593665 22.275353 
L 65.346032 22.275353 
L 65.534124 25.231941 
L 66.28649 25.231941 
L 66.474582 28.181562 
L 67.226949 28.181562 
L 67.41504 31.127358 
L 68.167407 31.127358 
L 68.355499 34.070971 
L 69.107866 34.070971 
L 69.295957 37.013295 
L 70.048324 37.013295 
L 70.236416 39.954836 
L 70.988782 39.954836 
L 71.176874 42.895886 
L 71.929241 42.895886 
L 72.117333 45.836623 
L 72.869699 45.836623 
L 73.057791 48.777153 
L 73.810158 48.777153 
L 73.998249 51.717538 
L 74.750616 51.717538 
L 74.938708 54.657812 
L 75.691075 54.657812 
L 75.879166 57.597973 
L 76.631533 57.597973 
L 76.819625 60.537967 
L 77.571991 60.537967 
L 77.760083 63.477619 
L 78.51245 63.477619 
L 78.700542 66.416467 
L 79.452908 66.416467 
L 79.641 69.353328 
L 80.393367 69.353328 
L 80.581458 72.285209 
L 81.333825 72.285209 
L 81.521917 75.204599 
L 82.274284 75.204599 
L 82.462375 78.092898 
L 83.214742 78.092898 
L 83.402834 80.905635 
L 84.1552 80.905635 
L 84.343292 83.545138 
L 85.095659 83.545138 
L 85.283751 85.835277 
L 86.036117 85.835277 
L 86.224209 87.569984 
L 86.976576 87.569984 
L 87.164667 88.68027 
L 87.917034 88.68027 
L 88.105126 89.309978 
L 88.857493 89.309978 
L 89.045584 89.667748 
L 89.797951 89.667748 
L 89.986043 89.897961 
L 90.738409 89.897961 
L 90.926501 90.073269 
L 91.678868 90.073269 
L 91.86696 90.225379 
L 92.619326 90.225379 
L 92.807418 90.367344 
L 93.559785 90.367344 
L 93.747876 90.504443 
L 94.500243 90.504443 
L 94.688335 90.638822 
L 95.440702 90.638822 
L 95.628793 90.771387 
L 96.38116 90.771387 
L 96.569252 90.902545 
L 97.321618 90.902545 
L 97.50971 91.032509 
L 98.262077 91.032509 
L 98.450169 91.161409 
L 99.202535 91.161409 
L 99.390627 91.28934 
L 100.142994 91.28934 
L 100.331085 91.416381 
L 101.083452 91.416381 
L 101.271544 91.5426 
L 102.023911 91.5426 
L 102.212002 91.668059 
L 102.964369 91.668059 
L 103.152461 91.792816 
L 103.904827 91.792816 
L 104.092919 91.916923 
L 104.845286 91.916923 
L 105.033378 92.040429 
L 105.785744 92.040429 
L 105.973836 92.163378 
L 106.726203 92.163378 
L 106.914294 92.285811 
L 107.666661 92.285811 
L 107.854753 92.407767 
L 108.60712 92.407767 
L 108.795211 92.529282 
L 109.547578 92.529282 
L 109.73567 92.650387 
L 110.488036 92.650387 
L 110.676128 92.771112 
L 111.428495 92.771112 
L 111.616587 92.891486 
L 112.368953 92.891486 
L 112.557045 93.011533 
L 113.309412 93.011533 
L 113.497503 93.131278 
L 114.24987 93.131278 
L 114.437962 93.250742 
L 115.190329 93.250742 
L 115.37842 93.369945 
L 116.130787 93.369945 
L 116.318879 93.488905 
L 117.071245 93.488905 
L 117.259337 93.60764 
L 118.011704 93.60764 
L 118.199796 93.726166 
L 118.952162 93.726166 
L 119.140254 93.844497 
L 119.892621 93.844497 
L 120.080712 93.962647 
L 120.833079 93.962647 
L 121.021171 94.080627 
L 121.773538 94.080627 
L 121.961629 94.19845 
L 122.713996 94.19845 
L 122.902088 94.316127 
L 123.654454 94.316127 
L 123.842546 94.433666 
L 124.594913 94.433666 
L 124.783005 94.551078 
L 125.535371 94.551078 
L 125.723463 94.668371 
L 126.47583 94.668371 
L 126.663921 94.785552 
L 127.416288 94.785552 
L 127.60438 94.902629 
L 128.356747 94.902629 
L 128.544838 95.019608 
L 129.297205 95.019608 
L 129.485297 95.136497 
L 130.237663 95.136497 
L 130.425755 95.2533 
L 131.178122 95.2533 
L 131.366213 95.370024 
L 132.11858 95.370024 
L 132.306672 95.486673 
L 133.059039 95.486673 
L 133.24713 95.603251 
L 133.999497 95.603251 
L 134.187589 95.719765 
L 134.939956 95.719765 
L 135.128047 95.836216 
L 135.880414 95.836216 
L 136.068506 95.95261 
L 136.820872 95.95261 
L 137.008964 96.068949 
L 137.761331 96.068949 
L 137.949422 96.185238 
L 138.701789 96.185238 
L 138.889881 96.301479 
L 139.642248 96.301479 
L 139.830339 96.417674 
L 140.582706 96.417674 
L 140.770798 96.533828 
L 141.523165 96.533828 
L 141.711256 96.649942 
L 142.463623 96.649942 
L 142.651715 96.766018 
L 143.404081 96.766018 
L 143.592173 96.882059 
L 144.34454 96.882059 
L 144.532631 96.998067 
L 145.284998 96.998067 
L 145.47309 97.114044 
L 146.225457 97.114044 
L 146.413548 97.229992 
L 147.165915 97.229992 
L 147.354007 97.345912 
L 148.106373 97.345912 
L 148.294465 97.461805 
L 149.046832 97.461805 
L 149.234924 97.577675 
L 149.98729 97.577675 
L 150.175382 97.693521 
L 150.927749 97.693521 
L 151.11584 97.809345 
L 151.868207 97.809345 
L 152.056299 97.925149 
L 152.808666 97.925149 
L 152.996757 98.040933 
L 153.749124 98.040933 
L 153.937216 98.1567 
L 154.689582 98.1567 
L 154.877674 98.272448 
L 155.630041 98.272448 
L 155.818133 98.388181 
L 156.570499 98.388181 
L 156.758591 98.503898 
L 157.510958 98.503898 
L 157.699049 98.6196 
L 158.451416 98.6196 
L 158.639508 98.735289 
L 159.391875 98.735289 
L 159.579966 98.850965 
L 160.332333 98.850965 
L 160.520425 98.966629 
L 161.272791 98.966629 
L 161.460883 99.082281 
L 162.21325 99.082281 
L 162.401342 99.197922 
L 163.153708 99.197922 
L 163.3418 99.313553 
L 164.094167 99.313553 
L 164.282258 99.429174 
L 165.034625 99.429174 
L 165.222717 99.544786 
L 165.975084 99.544786 
L 166.163175 99.660389 
L 166.915542 99.660389 
L 167.103634 99.775984 
L 167.856 99.775984 
L 168.044092 99.891571 
L 168.796459 99.891571 
L 168.984551 100.007151 
L 169.736917 100.007151 
L 169.925009 100.122724 
L 170.677376 100.122724 
L 170.865467 100.23829 
L 171.617834 100.23829 
L 171.805926 100.35385 
L 172.558293 100.35385 
L 172.746384 100.469404 
L 173.498751 100.469404 
L 173.686843 100.584953 
L 174.439209 100.584953 
L 174.627301 100.700496 
L 175.379668 100.700496 
L 175.56776 100.816034 
L 176.320126 100.816034 
L 176.508218 100.931568 
L 177.260585 100.931568 
L 177.448676 101.047097 
L 178.201043 101.047097 
L 178.389135 101.162622 
L 179.141502 101.162622 
L 179.329593 101.278143 
L 180.08196 101.278143 
L 180.270052 101.39366 
L 181.022418 101.39366 
L 181.21051 101.509174 
L 181.962877 101.509174 
L 182.150969 101.624684 
L 182.903335 101.624684 
L 183.091427 101.740191 
L 183.843794 101.740191 
L 184.031885 101.855695 
L 184.784252 101.855695 
L 184.972344 101.971196 
L 185.724711 101.971196 
L 185.912802 102.086695 
L 186.665169 102.086695 
L 186.853261 102.20219 
L 187.605627 102.20219 
L 187.793719 102.317684 
L 188.546086 102.317684 
L 188.734178 102.433175 
L 189.486544 102.433175 
L 189.674636 102.548664 
L 190.427003 102.548664 
L 190.615094 102.664151 
L 191.367461 102.664151 
L 191.555553 102.779636 
L 192.30792 102.779636 
L 192.496011 102.895119 
L 193.248378 102.895119 
L 193.43647 103.0106 
L 194.188836 103.0106 
L 194.376928 103.12608 
L 195.129295 103.12608 
L 195.317387 103.241558 
L 196.069753 103.241558 
L 196.257845 103.357034 
L 197.010212 103.357034 
L 197.198303 103.47251 
L 197.95067 103.47251 
L 198.138762 103.587983 
L 198.891129 103.587983 
L 199.07922 103.703456 
L 199.831587 103.703456 
L 200.019679 103.818928 
L 200.772045 103.818928 
L 200.960137 103.934398 
L 201.712504 103.934398 
L 201.900595 104.049867 
L 202.652962 104.049867 
L 202.841054 104.165335 
L 203.593421 104.165335 
L 203.781512 104.280803 
L 204.533879 104.280803 
L 204.721971 104.396269 
L 205.474338 104.396269 
L 205.662429 104.511734 
L 206.414796 104.511734 
L 206.602888 104.627199 
L 207.355254 104.627199 
L 207.543346 104.742663 
L 208.295713 104.742663 
L 208.483804 104.858126 
L 209.236171 104.858126 
L 209.424263 104.973589 
L 210.17663 104.973589 
L 210.364721 105.089051 
L 211.117088 105.089051 
L 211.30518 105.204512 
L 212.057547 105.204512 
L 212.245638 105.319972 
L 212.998005 105.319972 
L 213.186097 105.435432 
L 213.938463 105.435432 
L 214.126555 105.550892 
L 214.878922 105.550892 
L 215.067013 105.666351 
L 215.81938 105.666351 
L 216.007472 105.78181 
L 216.759839 105.78181 
L 216.94793 105.897268 
L 217.700297 105.897268 
L 217.888389 106.012725 
L 218.640755 106.012725 
L 218.828847 106.128183 
L 219.581214 106.128183 
L 219.769306 106.24364 
L 220.521672 106.24364 
L 220.709764 106.359096 
L 221.462131 106.359096 
L 221.650222 106.474553 
L 222.402589 106.474553 
L 222.590681 106.590008 
L 223.343048 106.590008 
L 223.531139 106.705464 
L 224.283506 106.705464 
L 224.471598 106.820919 
L 225.223964 106.820919 
L 225.412056 106.936374 
L 226.164423 106.936374 
L 226.352515 107.051829 
L 227.104881 107.051829 
L 227.292973 107.167284 
L 228.04534 107.167284 
L 228.233431 107.282738 
L 228.985798 107.282738 
L 229.17389 107.398192 
L 229.926257 107.398192 
L 230.114348 107.513646 
L 230.866715 107.513646 
L 231.054807 107.6291 
L 231.807173 107.6291 
L 231.995265 107.744553 
L 232.747632 107.744553 
L 232.935724 107.860007 
L 233.68809 107.860007 
L 233.876182 107.97546 
L 234.628549 107.97546 
L 234.81664 108.090913 
L 235.569007 108.090913 
L 235.757099 108.206365 
L 236.509466 108.206365 
L 236.697557 108.321818 
L 237.449924 108.321818 
L 237.638016 108.437271 
L 238.390382 108.437271 
L 238.578474 108.552723 
L 239.330841 108.552723 
L 239.518933 108.668176 
L 240.271299 108.668176 
L 240.459391 108.783628 
L 241.211758 108.783628 
L 241.399849 108.89908 
L 242.152216 108.89908 
L 242.340308 109.014532 
L 243.092675 109.014532 
L 243.280766 109.129984 
L 244.033133 109.129984 
L 244.221225 109.245436 
L 244.973591 109.245436 
L 245.161683 109.360887 
L 245.91405 109.360887 
L 246.102142 109.476339 
L 246.854508 109.476339 
L 247.0426 109.59179 
L 247.794967 109.59179 
L 247.983058 109.707242 
L 248.735425 109.707242 
L 248.735425 109.707242 
" style="fill:none;stroke:#3ea44e;stroke-dasharray:3,4.95;stroke-dashoffset:0;stroke-width:3;"/>
   </g>
   <g id="line2d_35">
    <path clip-path="url(#p9eacfde1b3)" d="M 60.737786 9.981175 
L 61.584198 9.981175 
L 61.77229 11.710442 
L 62.524657 11.710442 
L 62.712748 13.608868 
L 63.465115 13.608868 
L 63.653207 15.745547 
L 64.405574 15.745547 
L 64.593665 18.034383 
L 65.346032 18.034383 
L 65.534124 20.218826 
L 66.28649 20.218826 
L 66.474582 22.122237 
L 67.226949 22.122237 
L 67.41504 23.787782 
L 68.167407 23.787782 
L 68.355499 25.339265 
L 69.107866 25.339265 
L 69.295957 26.845652 
L 70.048324 26.845652 
L 70.236416 28.340443 
L 70.988782 28.340443 
L 71.176874 29.831039 
L 71.929241 29.831039 
L 72.117333 31.318546 
L 72.869699 31.318546 
L 73.057791 32.80851 
L 73.810158 32.80851 
L 73.998249 34.300026 
L 74.750616 34.300026 
L 74.938708 35.792489 
L 75.691075 35.792489 
L 75.879166 37.283701 
L 76.631533 37.283701 
L 76.819625 38.776162 
L 77.571991 38.776162 
L 77.760083 40.277633 
L 78.51245 40.277633 
L 78.700542 41.788737 
L 79.452908 41.788737 
L 79.641 43.294454 
L 80.393367 43.294454 
L 80.581458 44.812595 
L 81.333825 44.812595 
L 81.521917 46.474729 
L 82.274284 46.474729 
L 82.462375 48.426282 
L 83.214742 48.426282 
L 83.402834 51.022704 
L 84.1552 51.022704 
L 84.343292 56.921293 
L 85.095659 56.921293 
L 85.283751 57.427025 
L 86.036117 57.427025 
L 86.224209 57.840692 
L 86.976576 57.840692 
L 87.164667 58.241698 
L 87.917034 58.241698 
L 88.105126 58.639869 
L 88.857493 58.639869 
L 89.045584 59.037288 
L 89.797951 59.037288 
L 89.986043 59.434525 
L 90.738409 59.434525 
L 90.926501 59.831699 
L 91.678868 59.831699 
L 91.86696 60.228919 
L 92.619326 60.228919 
L 92.807418 60.626168 
L 93.559785 60.626168 
L 93.747876 61.023415 
L 94.500243 61.023415 
L 94.688335 61.420605 
L 95.440702 61.420605 
L 95.628793 61.817749 
L 96.38116 61.817749 
L 96.569252 62.214905 
L 97.321618 62.214905 
L 97.50971 62.612059 
L 98.262077 62.612059 
L 98.450169 63.009217 
L 99.202535 63.009217 
L 99.390627 63.406382 
L 100.142994 63.406382 
L 100.331085 63.803553 
L 101.083452 63.803553 
L 101.271544 64.200723 
L 102.023911 64.200723 
L 102.212002 64.597895 
L 102.964369 64.597895 
L 103.152461 64.995066 
L 103.904827 64.995066 
L 104.092919 65.392237 
L 104.845286 65.392237 
L 105.033378 65.789408 
L 105.785744 65.789408 
L 105.973836 66.186579 
L 106.726203 66.186579 
L 106.914294 66.58375 
L 107.666661 66.58375 
L 107.854753 66.980921 
L 108.60712 66.980921 
L 108.795211 67.378092 
L 109.547578 67.378092 
L 109.73567 67.775263 
L 110.488036 67.775263 
L 110.676128 68.172434 
L 111.428495 68.172434 
L 111.616587 68.569605 
L 112.368953 68.569605 
L 112.557045 68.966775 
L 113.309412 68.966775 
L 113.497503 69.363946 
L 114.24987 69.363946 
L 114.437962 69.761117 
L 115.190329 69.761117 
L 115.37842 70.158288 
L 116.130787 70.158288 
L 116.318879 70.555459 
L 117.071245 70.555459 
L 117.259337 70.95263 
L 118.011704 70.95263 
L 118.199796 71.349801 
L 118.952162 71.349801 
L 119.140254 71.746972 
L 119.892621 71.746972 
L 120.080712 72.144143 
L 120.833079 72.144143 
L 121.021171 72.541314 
L 121.773538 72.541314 
L 121.961629 72.938485 
L 122.713996 72.938485 
L 122.902088 73.335655 
L 123.654454 73.335655 
L 123.842546 73.732826 
L 124.594913 73.732826 
L 124.783005 74.129997 
L 125.535371 74.129997 
L 125.723463 74.527168 
L 126.47583 74.527168 
L 126.663921 74.924339 
L 127.416288 74.924339 
L 127.60438 75.32151 
L 128.356747 75.32151 
L 128.544838 75.718681 
L 129.297205 75.718681 
L 129.485297 76.115852 
L 130.237663 76.115852 
L 130.425755 76.513023 
L 131.178122 76.513023 
L 131.366213 76.910194 
L 132.11858 76.910194 
L 132.306672 77.307364 
L 133.059039 77.307364 
L 133.24713 77.704535 
L 133.999497 77.704535 
L 134.187589 78.101706 
L 134.939956 78.101706 
L 135.128047 78.498877 
L 135.880414 78.498877 
L 136.068506 78.896048 
L 136.820872 78.896048 
L 137.008964 79.293219 
L 137.761331 79.293219 
L 137.949422 79.69039 
L 138.701789 79.69039 
L 138.889881 80.087561 
L 139.642248 80.087561 
L 139.830339 80.484732 
L 140.582706 80.484732 
L 140.770798 80.881903 
L 141.523165 80.881903 
L 141.711256 81.279074 
L 142.463623 81.279074 
L 142.651715 81.676244 
L 143.404081 81.676244 
L 143.592173 82.073415 
L 144.34454 82.073415 
L 144.532631 82.470586 
L 145.284998 82.470586 
L 145.47309 82.867757 
L 146.225457 82.867757 
L 146.413548 83.264928 
L 147.165915 83.264928 
L 147.354007 83.662099 
L 148.106373 83.662099 
L 148.294465 84.05927 
L 149.046832 84.05927 
L 149.234924 84.456441 
L 149.98729 84.456441 
L 150.175382 84.853612 
L 150.927749 84.853612 
L 151.11584 85.250783 
L 151.868207 85.250783 
L 152.056299 85.647953 
L 152.808666 85.647953 
L 152.996757 86.045124 
L 153.749124 86.045124 
L 153.937216 86.442295 
L 154.689582 86.442295 
L 154.877674 86.839466 
L 155.630041 86.839466 
L 155.818133 87.236637 
L 156.570499 87.236637 
L 156.758591 87.633808 
L 157.510958 87.633808 
L 157.699049 88.030979 
L 158.451416 88.030979 
L 158.639508 88.42815 
L 159.391875 88.42815 
L 159.579966 88.825321 
L 160.332333 88.825321 
L 160.520425 89.222492 
L 161.272791 89.222492 
L 161.460883 89.619663 
L 162.21325 89.619663 
L 162.401342 90.016833 
L 163.153708 90.016833 
L 163.3418 90.414004 
L 164.094167 90.414004 
L 164.282258 90.811175 
L 165.034625 90.811175 
L 165.222717 91.208346 
L 165.975084 91.208346 
L 166.163175 91.605517 
L 166.915542 91.605517 
L 167.103634 92.002688 
L 167.856 92.002688 
L 168.044092 92.399859 
L 168.796459 92.399859 
L 168.984551 92.79703 
L 169.736917 92.79703 
L 169.925009 93.194201 
L 170.677376 93.194201 
L 170.865467 93.591372 
L 171.617834 93.591372 
L 171.805926 93.988542 
L 172.558293 93.988542 
L 172.746384 94.385713 
L 173.498751 94.385713 
L 173.686843 94.782884 
L 174.439209 94.782884 
L 174.627301 95.180055 
L 175.379668 95.180055 
L 175.56776 95.577226 
L 176.320126 95.577226 
L 176.508218 95.974397 
L 177.260585 95.974397 
L 177.448676 96.371568 
L 178.201043 96.371568 
L 178.389135 96.768739 
L 179.141502 96.768739 
L 179.329593 97.16591 
L 180.08196 97.16591 
L 180.270052 97.563081 
L 181.022418 97.563081 
L 181.21051 97.960251 
L 181.962877 97.960251 
L 182.150969 98.357422 
L 182.903335 98.357422 
L 183.091427 98.754593 
L 183.843794 98.754593 
L 184.031885 99.151764 
L 184.784252 99.151764 
L 184.972344 99.548935 
L 185.724711 99.548935 
L 185.912802 99.946106 
L 186.665169 99.946106 
L 186.853261 100.343277 
L 187.605627 100.343277 
L 187.793719 100.740448 
L 188.546086 100.740448 
L 188.734178 101.137619 
L 189.486544 101.137619 
L 189.674636 101.53479 
L 190.427003 101.53479 
L 190.615094 101.931961 
L 191.367461 101.931961 
L 191.555553 102.329131 
L 192.30792 102.329131 
L 192.496011 102.726302 
L 193.248378 102.726302 
L 193.43647 103.123473 
L 194.188836 103.123473 
L 194.376928 103.520644 
L 195.129295 103.520644 
L 195.317387 103.917815 
L 196.069753 103.917815 
L 196.257845 104.314986 
L 197.010212 104.314986 
L 197.198303 104.712157 
L 197.95067 104.712157 
L 198.138762 105.109328 
L 198.891129 105.109328 
L 199.07922 105.506499 
L 199.831587 105.506499 
L 200.019679 105.90367 
L 200.772045 105.90367 
L 200.960137 106.30084 
L 201.712504 106.30084 
L 201.900595 106.698011 
L 202.652962 106.698011 
L 202.841054 107.095182 
L 203.593421 107.095182 
L 203.781512 107.492353 
L 204.533879 107.492353 
L 204.721971 107.889524 
L 205.474338 107.889524 
L 205.662429 108.286695 
L 206.414796 108.286695 
L 206.602888 108.683866 
L 207.355254 108.683866 
L 207.543346 109.081037 
L 208.295713 109.081037 
L 208.483804 109.478208 
L 209.236171 109.478208 
L 209.424263 109.875379 
L 210.17663 109.875379 
L 210.364721 110.27255 
L 211.117088 110.27255 
L 211.30518 110.66972 
L 212.057547 110.66972 
L 212.245638 111.066891 
L 212.998005 111.066891 
L 213.186097 111.464062 
L 213.938463 111.464062 
L 214.126555 111.861233 
L 214.878922 111.861233 
L 215.067013 112.258404 
L 215.81938 112.258404 
L 216.007472 112.655575 
L 216.759839 112.655575 
L 216.94793 113.052746 
L 217.700297 113.052746 
L 217.888389 113.449917 
L 218.640755 113.449917 
L 218.828847 113.847088 
L 219.581214 113.847088 
L 219.769306 114.244259 
L 220.521672 114.244259 
L 220.709764 114.641429 
L 221.462131 114.641429 
L 221.650222 115.0386 
L 222.402589 115.0386 
L 222.590681 115.435771 
L 223.343048 115.435771 
L 223.531139 115.832942 
L 224.283506 115.832942 
L 224.471598 116.230113 
L 225.223964 116.230113 
L 225.412056 116.627284 
L 226.164423 116.627284 
L 226.352515 117.024455 
L 227.104881 117.024455 
L 227.292973 117.421626 
L 228.04534 117.421626 
L 228.233431 117.818797 
L 228.985798 117.818797 
L 229.17389 118.215968 
L 229.926257 118.215968 
L 230.114348 118.613138 
L 230.866715 118.613138 
L 231.054807 119.010309 
L 231.807173 119.010309 
L 231.995265 119.40748 
L 232.747632 119.40748 
L 232.935724 119.804651 
L 233.68809 119.804651 
L 233.876182 120.201822 
L 234.628549 120.201822 
L 234.81664 120.598993 
L 235.569007 120.598993 
L 235.757099 120.996164 
L 236.509466 120.996164 
L 236.697557 121.393335 
L 237.449924 121.393335 
L 237.638016 121.790506 
L 238.390382 121.790506 
L 238.578474 122.187677 
L 239.330841 122.187677 
L 239.518933 122.584848 
L 240.271299 122.584848 
L 240.459391 122.982018 
L 241.211758 122.982018 
L 241.399849 123.379189 
L 242.152216 123.379189 
L 242.340308 123.77636 
L 243.092675 123.77636 
L 243.280766 124.173531 
L 244.033133 124.173531 
L 244.221225 124.570702 
L 244.973591 124.570702 
L 245.161683 124.967873 
L 245.91405 124.967873 
L 246.102142 125.365044 
L 246.854508 125.365044 
L 247.0426 125.762215 
L 247.794967 125.762215 
L 247.983058 126.159386 
L 248.735425 126.159386 
L 248.735425 126.159386 
" style="fill:none;stroke:#c371d2;stroke-dasharray:3,4.95;stroke-dashoffset:0;stroke-width:3;"/>
   </g>
   <g id="line2d_36">
    <path clip-path="url(#p9eacfde1b3)" d="M 60.737786 27.13858 
L 61.019923 39.33764 
L 61.396107 45.501114 
L 61.866336 49.084176 
L 62.524657 52.098454 
L 63.653207 55.126113 
L 63.935344 55.476534 
L 64.499619 56.499751 
L 66.004353 58.530599 
L 66.28649 58.779042 
L 66.568628 59.331174 
L 66.75672 59.29381 
L 67.88527 60.443529 
L 68.261453 60.668958 
L 68.637636 61.046935 
L 69.01382 61.349146 
L 69.672141 61.867306 
L 70.424507 62.13686 
L 70.612599 62.201716 
L 70.988782 62.574523 
L 71.364966 62.799828 
L 71.929241 63.10401 
L 72.211378 63.391372 
L 72.587562 63.307246 
L 72.963745 63.71896 
L 73.339929 63.741251 
L 73.52802 63.985843 
L 74.092295 63.998593 
L 74.374433 64.190783 
L 74.468479 64.17823 
L 74.844662 64.51953 
L 75.032754 64.604148 
L 75.314891 64.807092 
L 75.408937 64.78375 
L 75.597029 64.937949 
L 75.78512 64.988884 
L 77.101762 65.349178 
L 77.3839 65.514068 
L 77.666037 64.746567 
L 77.854129 63.361705 
L 78.230312 60.100601 
L 79.076725 64.960184 
L 79.264817 65.490308 
L 79.641 66.487401 
L 79.923138 66.934754 
L 80.393367 67.880324 
L 80.581458 68.254541 
L 80.957642 69.365434 
L 81.051688 69.381816 
L 81.8981 70.553259 
L 82.086192 70.697242 
L 82.274284 70.909103 
L 83.120696 72.485242 
L 83.308788 72.884338 
L 83.590925 73.401945 
L 83.967109 73.817507 
L 84.813521 75.967864 
L 85.283751 77.668833 
L 85.942071 78.49494 
L 87.070622 80.830047 
L 87.258713 81.068066 
L 87.446805 81.182852 
L 87.634897 81.364036 
L 87.728942 81.419844 
L 88.669401 83.594593 
L 89.13963 84.792131 
L 90.080089 87.046023 
L 90.550318 88.35604 
L 91.302685 90.909021 
L 92.149097 93.217248 
L 92.431235 94.136648 
L 93.277647 98.237086 
L 94.030014 101.581707 
L 94.594289 104.456859 
L 95.064518 104.793422 
L 95.346656 106.481194 
L 95.628793 108.114051 
L 95.816885 108.763019 
L 96.287114 111.327957 
L 97.415664 116.274209 
L 97.885894 118.088528 
L 98.073985 118.899998 
L 98.450169 120.499558 
L 98.826352 122.913734 
L 99.108489 124.291543 
L 99.296581 124.887152 
L 100.331085 129.300857 
L 100.89536 132.132295 
L 101.835819 137.468404 
L 102.306048 139.467262 
L 103.528644 146.276891 
L 104.375057 151.565602 
L 104.75124 153.588705 
L 105.87979 159.259549 
L 107.854753 167.32114 
L 108.795211 171.658732 
L 109.359486 172.578984 
L 109.641624 172.591435 
L 110.017807 173.629308 
L 110.770174 176.567057 
L 111.146357 177.662429 
L 111.334449 178.651387 
L 111.898724 182.543085 
L 112.274907 184.556559 
L 112.839182 188.729464 
L 113.12132 190.2355 
L 113.873687 195.740504 
L 114.908191 202.708591 
L 115.190329 204.357001 
L 117.447429 221.251117 
L 117.541475 222.071384 
L 117.541475 222.071384 
" style="fill:none;stroke:#ac8e18;stroke-linecap:round;stroke-width:3;"/>
   </g>
   <g id="line2d_37">
    <path clip-path="url(#p9eacfde1b3)" d="M 60.737786 27.106773 
L 61.019923 39.273291 
L 61.396107 45.448583 
L 61.866336 49.062797 
L 62.524657 52.056825 
L 63.371069 54.441 
L 63.747253 55.210384 
L 63.935344 55.484669 
L 64.499619 56.510379 
L 64.781757 56.899972 
L 65.346032 57.815164 
L 66.380536 59.050909 
L 66.568628 59.321431 
L 66.75672 59.275465 
L 67.791224 60.40924 
L 68.167407 60.630468 
L 68.355499 60.857461 
L 68.919774 61.290968 
L 70.330462 62.132905 
L 70.518553 62.116734 
L 70.988782 62.564137 
L 71.176874 62.671301 
L 71.647103 62.946273 
L 71.835195 63.014471 
L 72.305424 63.348169 
L 72.587562 63.334076 
L 72.869699 63.672481 
L 73.339929 63.79283 
L 73.52802 63.980822 
L 73.810158 64.003494 
L 74.374433 64.172248 
L 75.220845 64.797539 
L 75.597029 64.907304 
L 76.067258 65.064934 
L 76.161304 64.994051 
L 76.349396 65.159206 
L 76.537487 65.033975 
L 76.725579 65.229666 
L 76.913671 65.289875 
L 77.3839 65.425825 
L 77.571991 64.953383 
L 77.760083 63.864978 
L 78.136267 60.074869 
L 78.230312 60.24035 
L 78.606496 62.803642 
L 78.794587 63.730822 
L 78.982679 64.922255 
L 79.170771 65.264624 
L 79.452908 66.11336 
L 80.111229 67.459419 
L 80.299321 67.948662 
L 81.145734 69.80275 
L 81.710009 70.65719 
L 81.992146 70.82642 
L 82.274284 71.102198 
L 82.932605 72.541369 
L 83.120696 72.750065 
L 84.62543 75.499046 
L 84.907567 76.859086 
L 85.471842 78.199363 
L 85.659934 78.367189 
L 86.788484 80.437553 
L 87.164667 81.303057 
L 87.258713 81.207374 
L 88.01108 82.202132 
L 88.481309 83.623314 
L 88.669401 83.975028 
L 89.327722 85.672589 
L 90.362226 88.251103 
L 91.584822 92.274388 
L 92.055051 93.416061 
L 92.431235 94.867021 
L 93.183601 98.764187 
L 93.841922 101.415606 
L 94.594289 104.82142 
L 94.782381 104.67818 
L 94.970472 104.875169 
L 95.25261 106.375112 
L 95.628793 108.71846 
L 95.816885 109.800261 
L 96.099022 111.685738 
L 96.851389 114.245254 
L 97.697802 118.20252 
L 98.544214 122.020858 
L 98.920398 124.494764 
L 99.108489 124.87029 
L 99.860856 128.191973 
L 100.142994 129.29228 
L 101.083452 134.311238 
L 101.647727 137.54854 
L 102.117956 139.490483 
L 103.716736 149.105832 
L 104.281011 152.218498 
L 106.538111 162.008344 
L 107.00834 163.283594 
L 107.384524 164.594063 
L 108.13689 168.14099 
L 108.60712 169.2956 
L 109.547578 170.948063 
L 110.017807 173.304567 
L 110.488036 175.671465 
L 111.146357 178.209944 
L 111.898724 183.811073 
L 112.180862 185.22371 
L 112.839182 190.040619 
L 113.497503 194.485102 
L 113.967733 198.00557 
L 114.437962 200.991254 
L 114.814145 203.381807 
L 115.096283 205.210329 
L 116.412925 215.053303 
L 116.789108 217.930142 
L 117.259337 221.873186 
L 117.259337 221.873186 
" style="fill:none;stroke:#00aaae;stroke-linecap:round;stroke-width:3;"/>
   </g>
   <g id="line2d_38">
    <path clip-path="url(#p9eacfde1b3)" d="M 60.737786 19.59696 
L 60.831831 43.891192 
L 60.925877 60.426105 
L 61.019923 73.68684 
L 61.113969 87.109668 
L 61.208015 100.049623 
L 61.302061 113.231087 
L 61.396107 126.281122 
L 61.490152 139.452264 
L 61.584198 152.594386 
L 61.678244 165.797026 
L 61.77229 178.997757 
L 61.866336 192.230525 
L 61.960382 205.469997 
L 62.054427 218.730376 
L 62.148473 232.001176 
L 62.242519 245.286822 
" style="fill:none;stroke:#ed5e93;stroke-linecap:round;stroke-width:3;"/>
   </g>
   <g id="line2d_39">
    <path clip-path="url(#p9eacfde1b3)" d="M 60.737786 45.485254 
L 60.831831 61.765402 
L 60.925877 78.183295 
L 61.019923 88.867937 
L 61.113969 100.617834 
L 61.208015 110.722998 
L 61.302061 121.387108 
L 61.396107 133.585449 
L 61.490152 144.618438 
L 61.584198 157.058523 
L 61.678244 168.470136 
L 61.77229 179.772718 
L 61.866336 192.86172 
L 61.960382 203.634603 
L 62.054427 216.236447 
L 62.148473 228.635161 
" style="fill:none;stroke:#c68225;stroke-linecap:round;stroke-width:3;"/>
   </g>
   <g id="line2d_40">
    <path clip-path="url(#p9eacfde1b3)" d="M 60.737786 47.372869 
L 60.831831 73.154938 
L 60.925877 83.425696 
L 61.019923 96.656089 
L 61.113969 114.053997 
L 61.208015 128.646733 
L 61.302061 147.562031 
L 61.396107 165.441984 
L 61.490152 182.469363 
L 61.584198 201.331213 
L 61.678244 218.01599 
L 61.77229 237.032718 
" style="fill:none;stroke:#00a98d;stroke-linecap:round;stroke-width:3;"/>
   </g>
   <g id="line2d_41">
    <path clip-path="url(#p9eacfde1b3)" d="M 60.737786 47.372869 
L 60.831831 73.154938 
L 60.925877 83.425696 
L 61.019923 96.656089 
L 61.113969 114.053997 
L 61.208015 128.646733 
L 61.302061 147.562031 
L 61.396107 165.441984 
L 61.490152 182.469363 
L 61.584198 201.331213 
L 61.678244 218.01599 
L 61.77229 237.032718 
" style="fill:none;stroke:#8e971e;stroke-linecap:round;stroke-width:3;"/>
   </g>
   <g id="line2d_42">
    <path clip-path="url(#p9eacfde1b3)" d="M 60.737786 79.680685 
L 60.831831 97.927309 
L 60.925877 118.840482 
L 61.019923 141.281042 
L 61.113969 165.4518 
L 61.208015 193.5385 
L 61.302061 219.121926 
L 61.396107 248.198825 
" style="fill:none;stroke:#00a9cc;stroke-linecap:round;stroke-width:3;"/>
   </g>
   <g id="legend_1">
    <g id="patch_5">
     <path d="M 259.875354 189.851833 
L 428.709886 189.851833 
L 428.709886 8.334646 
L 259.875354 8.334646 
z
" style="fill:#ffffff;stroke:#000000;stroke-linejoin:miter;"/>
    </g>
    <g id="line2d_43">
     <path d="M 264.275354 17.242927 
L 286.275354 17.242927 
" style="fill:none;stroke:#009afa;stroke-linecap:square;stroke-width:1.375;"/>
    </g>
    <g id="line2d_44"/>
    <g id="text_12">
     <!-- gauss_seidel -->
     <defs>
      <path d="M 45.40625 27.984375 
Q 45.40625 37.75 41.375 43.109375 
Q 37.359375 48.484375 30.078125 48.484375 
Q 22.859375 48.484375 18.828125 43.109375 
Q 14.796875 37.75 14.796875 27.984375 
Q 14.796875 18.265625 18.828125 12.890625 
Q 22.859375 7.515625 30.078125 7.515625 
Q 37.359375 7.515625 41.375 12.890625 
Q 45.40625 18.265625 45.40625 27.984375 
z
M 54.390625 6.78125 
Q 54.390625 -7.171875 48.1875 -13.984375 
Q 42 -20.796875 29.203125 -20.796875 
Q 24.46875 -20.796875 20.265625 -20.09375 
Q 16.0625 -19.390625 12.109375 -17.921875 
L 12.109375 -9.1875 
Q 16.0625 -11.328125 19.921875 -12.34375 
Q 23.78125 -13.375 27.78125 -13.375 
Q 36.625 -13.375 41.015625 -8.765625 
Q 45.40625 -4.15625 45.40625 5.171875 
L 45.40625 9.625 
Q 42.625 4.78125 38.28125 2.390625 
Q 33.9375 0 27.875 0 
Q 17.828125 0 11.671875 7.65625 
Q 5.515625 15.328125 5.515625 27.984375 
Q 5.515625 40.671875 11.671875 48.328125 
Q 17.828125 56 27.875 56 
Q 33.9375 56 38.28125 53.609375 
Q 42.625 51.21875 45.40625 46.390625 
L 45.40625 54.6875 
L 54.390625 54.6875 
z
" id="DejaVuSans-103"/>
      <path d="M 50.984375 -16.609375 
L 50.984375 -23.578125 
L -0.984375 -23.578125 
L -0.984375 -16.609375 
z
" id="DejaVuSans-95"/>
     </defs>
     <g transform="translate(295.075354 21.092927)scale(0.11 -0.11)">
      <use xlink:href="#DejaVuSans-103"/>
      <use x="63.476562" xlink:href="#DejaVuSans-97"/>
      <use x="124.755859" xlink:href="#DejaVuSans-117"/>
      <use x="188.134766" xlink:href="#DejaVuSans-115"/>
      <use x="240.234375" xlink:href="#DejaVuSans-115"/>
      <use x="292.333984" xlink:href="#DejaVuSans-95"/>
      <use x="342.333984" xlink:href="#DejaVuSans-115"/>
      <use x="394.433594" xlink:href="#DejaVuSans-101"/>
      <use x="455.957031" xlink:href="#DejaVuSans-105"/>
      <use x="483.740234" xlink:href="#DejaVuSans-100"/>
      <use x="547.216797" xlink:href="#DejaVuSans-101"/>
      <use x="608.740234" xlink:href="#DejaVuSans-108"/>
     </g>
    </g>
    <g id="line2d_45">
     <path d="M 264.275354 33.694802 
L 286.275354 33.694802 
" style="fill:none;stroke:#e36f47;stroke-dasharray:1.375,2.26875;stroke-dashoffset:0;stroke-width:1.375;"/>
    </g>
    <g id="line2d_46"/>
    <g id="text_13">
     <!-- jacobi -->
     <defs>
      <path d="M 9.421875 54.6875 
L 18.40625 54.6875 
L 18.40625 -0.984375 
Q 18.40625 -11.421875 14.421875 -16.109375 
Q 10.453125 -20.796875 1.609375 -20.796875 
L -1.8125 -20.796875 
L -1.8125 -13.1875 
L 0.59375 -13.1875 
Q 5.71875 -13.1875 7.5625 -10.8125 
Q 9.421875 -8.453125 9.421875 -0.984375 
z
M 9.421875 75.984375 
L 18.40625 75.984375 
L 18.40625 64.59375 
L 9.421875 64.59375 
z
" id="DejaVuSans-106"/>
      <path d="M 48.78125 52.59375 
L 48.78125 44.1875 
Q 44.96875 46.296875 41.140625 47.34375 
Q 37.3125 48.390625 33.40625 48.390625 
Q 24.65625 48.390625 19.8125 42.84375 
Q 14.984375 37.3125 14.984375 27.296875 
Q 14.984375 17.28125 19.8125 11.734375 
Q 24.65625 6.203125 33.40625 6.203125 
Q 37.3125 6.203125 41.140625 7.25 
Q 44.96875 8.296875 48.78125 10.40625 
L 48.78125 2.09375 
Q 45.015625 0.34375 40.984375 -0.53125 
Q 36.96875 -1.421875 32.421875 -1.421875 
Q 20.0625 -1.421875 12.78125 6.34375 
Q 5.515625 14.109375 5.515625 27.296875 
Q 5.515625 40.671875 12.859375 48.328125 
Q 20.21875 56 33.015625 56 
Q 37.15625 56 41.109375 55.140625 
Q 45.0625 54.296875 48.78125 52.59375 
z
" id="DejaVuSans-99"/>
      <path d="M 48.6875 27.296875 
Q 48.6875 37.203125 44.609375 42.84375 
Q 40.53125 48.484375 33.40625 48.484375 
Q 26.265625 48.484375 22.1875 42.84375 
Q 18.109375 37.203125 18.109375 27.296875 
Q 18.109375 17.390625 22.1875 11.75 
Q 26.265625 6.109375 33.40625 6.109375 
Q 40.53125 6.109375 44.609375 11.75 
Q 48.6875 17.390625 48.6875 27.296875 
z
M 18.109375 46.390625 
Q 20.953125 51.265625 25.265625 53.625 
Q 29.59375 56 35.59375 56 
Q 45.5625 56 51.78125 48.09375 
Q 58.015625 40.1875 58.015625 27.296875 
Q 58.015625 14.40625 51.78125 6.484375 
Q 45.5625 -1.421875 35.59375 -1.421875 
Q 29.59375 -1.421875 25.265625 0.953125 
Q 20.953125 3.328125 18.109375 8.203125 
L 18.109375 0 
L 9.078125 0 
L 9.078125 75.984375 
L 18.109375 75.984375 
z
" id="DejaVuSans-98"/>
     </defs>
     <g transform="translate(295.075354 37.544802)scale(0.11 -0.11)">
      <use xlink:href="#DejaVuSans-106"/>
      <use x="27.783203" xlink:href="#DejaVuSans-97"/>
      <use x="89.0625" xlink:href="#DejaVuSans-99"/>
      <use x="144.042969" xlink:href="#DejaVuSans-111"/>
      <use x="205.224609" xlink:href="#DejaVuSans-98"/>
      <use x="268.701172" xlink:href="#DejaVuSans-105"/>
     </g>
    </g>
    <g id="line2d_47">
     <path d="M 264.275354 49.840739 
L 286.275354 49.840739 
" style="fill:none;stroke:#3ea44e;stroke-dasharray:1.375,2.26875;stroke-dashoffset:0;stroke-width:1.375;"/>
    </g>
    <g id="line2d_48"/>
    <g id="text_14">
     <!-- ssor -->
     <g transform="translate(295.075354 53.690739)scale(0.11 -0.11)">
      <use xlink:href="#DejaVuSans-115"/>
      <use x="52.099609" xlink:href="#DejaVuSans-115"/>
      <use x="104.199219" xlink:href="#DejaVuSans-111"/>
      <use x="165.380859" xlink:href="#DejaVuSans-114"/>
     </g>
    </g>
    <g id="line2d_49">
     <path d="M 264.275354 65.986677 
L 286.275354 65.986677 
" style="fill:none;stroke:#c371d2;stroke-dasharray:1.375,2.26875;stroke-dashoffset:0;stroke-width:1.375;"/>
    </g>
    <g id="line2d_50"/>
    <g id="text_15">
     <!-- sor -->
     <g transform="translate(295.075354 69.836677)scale(0.11 -0.11)">
      <use xlink:href="#DejaVuSans-115"/>
      <use x="52.099609" xlink:href="#DejaVuSans-111"/>
      <use x="113.28125" xlink:href="#DejaVuSans-114"/>
     </g>
    </g>
    <g id="line2d_51">
     <path d="M 264.275354 82.132614 
L 286.275354 82.132614 
" style="fill:none;stroke:#ac8e18;stroke-linecap:square;stroke-width:1.375;"/>
    </g>
    <g id="line2d_52"/>
    <g id="text_16">
     <!-- PCGnothing -->
     <defs>
      <path d="M 19.671875 64.796875 
L 19.671875 37.40625 
L 32.078125 37.40625 
Q 38.96875 37.40625 42.71875 40.96875 
Q 46.484375 44.53125 46.484375 51.125 
Q 46.484375 57.671875 42.71875 61.234375 
Q 38.96875 64.796875 32.078125 64.796875 
z
M 9.8125 72.90625 
L 32.078125 72.90625 
Q 44.34375 72.90625 50.609375 67.359375 
Q 56.890625 61.8125 56.890625 51.125 
Q 56.890625 40.328125 50.609375 34.8125 
Q 44.34375 29.296875 32.078125 29.296875 
L 19.671875 29.296875 
L 19.671875 0 
L 9.8125 0 
z
" id="DejaVuSans-80"/>
      <path d="M 64.40625 67.28125 
L 64.40625 56.890625 
Q 59.421875 61.53125 53.78125 63.8125 
Q 48.140625 66.109375 41.796875 66.109375 
Q 29.296875 66.109375 22.65625 58.46875 
Q 16.015625 50.828125 16.015625 36.375 
Q 16.015625 21.96875 22.65625 14.328125 
Q 29.296875 6.6875 41.796875 6.6875 
Q 48.140625 6.6875 53.78125 8.984375 
Q 59.421875 11.28125 64.40625 15.921875 
L 64.40625 5.609375 
Q 59.234375 2.09375 53.4375 0.328125 
Q 47.65625 -1.421875 41.21875 -1.421875 
Q 24.65625 -1.421875 15.125 8.703125 
Q 5.609375 18.84375 5.609375 36.375 
Q 5.609375 53.953125 15.125 64.078125 
Q 24.65625 74.21875 41.21875 74.21875 
Q 47.75 74.21875 53.53125 72.484375 
Q 59.328125 70.75 64.40625 67.28125 
z
" id="DejaVuSans-67"/>
      <path d="M 59.515625 10.40625 
L 59.515625 29.984375 
L 43.40625 29.984375 
L 43.40625 38.09375 
L 69.28125 38.09375 
L 69.28125 6.78125 
Q 63.578125 2.734375 56.6875 0.65625 
Q 49.8125 -1.421875 42 -1.421875 
Q 24.90625 -1.421875 15.25 8.5625 
Q 5.609375 18.5625 5.609375 36.375 
Q 5.609375 54.25 15.25 64.234375 
Q 24.90625 74.21875 42 74.21875 
Q 49.125 74.21875 55.546875 72.453125 
Q 61.96875 70.703125 67.390625 67.28125 
L 67.390625 56.78125 
Q 61.921875 61.421875 55.765625 63.765625 
Q 49.609375 66.109375 42.828125 66.109375 
Q 29.4375 66.109375 22.71875 58.640625 
Q 16.015625 51.171875 16.015625 36.375 
Q 16.015625 21.625 22.71875 14.15625 
Q 29.4375 6.6875 42.828125 6.6875 
Q 48.046875 6.6875 52.140625 7.59375 
Q 56.25 8.5 59.515625 10.40625 
z
" id="DejaVuSans-71"/>
      <path d="M 54.890625 33.015625 
L 54.890625 0 
L 45.90625 0 
L 45.90625 32.71875 
Q 45.90625 40.484375 42.875 44.328125 
Q 39.84375 48.1875 33.796875 48.1875 
Q 26.515625 48.1875 22.3125 43.546875 
Q 18.109375 38.921875 18.109375 30.90625 
L 18.109375 0 
L 9.078125 0 
L 9.078125 75.984375 
L 18.109375 75.984375 
L 18.109375 46.1875 
Q 21.34375 51.125 25.703125 53.5625 
Q 30.078125 56 35.796875 56 
Q 45.21875 56 50.046875 50.171875 
Q 54.890625 44.34375 54.890625 33.015625 
z
" id="DejaVuSans-104"/>
     </defs>
     <g transform="translate(295.075354 85.982614)scale(0.11 -0.11)">
      <use xlink:href="#DejaVuSans-80"/>
      <use x="60.302734" xlink:href="#DejaVuSans-67"/>
      <use x="130.126953" xlink:href="#DejaVuSans-71"/>
      <use x="207.617188" xlink:href="#DejaVuSans-110"/>
      <use x="270.996094" xlink:href="#DejaVuSans-111"/>
      <use x="332.177734" xlink:href="#DejaVuSans-116"/>
      <use x="371.386719" xlink:href="#DejaVuSans-104"/>
      <use x="434.765625" xlink:href="#DejaVuSans-105"/>
      <use x="462.548828" xlink:href="#DejaVuSans-110"/>
      <use x="525.927734" xlink:href="#DejaVuSans-103"/>
     </g>
    </g>
    <g id="line2d_53">
     <path d="M 264.275354 98.278552 
L 286.275354 98.278552 
" style="fill:none;stroke:#00aaae;stroke-linecap:square;stroke-width:1.375;"/>
    </g>
    <g id="line2d_54"/>
    <g id="text_17">
     <!-- PCGDiagonalPrecond -->
     <defs>
      <path d="M 19.671875 64.796875 
L 19.671875 8.109375 
L 31.59375 8.109375 
Q 46.6875 8.109375 53.6875 14.9375 
Q 60.6875 21.78125 60.6875 36.53125 
Q 60.6875 51.171875 53.6875 57.984375 
Q 46.6875 64.796875 31.59375 64.796875 
z
M 9.8125 72.90625 
L 30.078125 72.90625 
Q 51.265625 72.90625 61.171875 64.09375 
Q 71.09375 55.28125 71.09375 36.53125 
Q 71.09375 17.671875 61.125 8.828125 
Q 51.171875 0 30.078125 0 
L 9.8125 0 
z
" id="DejaVuSans-68"/>
     </defs>
     <g transform="translate(295.075354 102.128552)scale(0.11 -0.11)">
      <use xlink:href="#DejaVuSans-80"/>
      <use x="60.302734" xlink:href="#DejaVuSans-67"/>
      <use x="130.126953" xlink:href="#DejaVuSans-71"/>
      <use x="207.617188" xlink:href="#DejaVuSans-68"/>
      <use x="284.619141" xlink:href="#DejaVuSans-105"/>
      <use x="312.402344" xlink:href="#DejaVuSans-97"/>
      <use x="373.681641" xlink:href="#DejaVuSans-103"/>
      <use x="437.158203" xlink:href="#DejaVuSans-111"/>
      <use x="498.339844" xlink:href="#DejaVuSans-110"/>
      <use x="561.71875" xlink:href="#DejaVuSans-97"/>
      <use x="622.998047" xlink:href="#DejaVuSans-108"/>
      <use x="650.78125" xlink:href="#DejaVuSans-80"/>
      <use x="709.333984" xlink:href="#DejaVuSans-114"/>
      <use x="748.197266" xlink:href="#DejaVuSans-101"/>
      <use x="809.720703" xlink:href="#DejaVuSans-99"/>
      <use x="864.701172" xlink:href="#DejaVuSans-111"/>
      <use x="925.882812" xlink:href="#DejaVuSans-110"/>
      <use x="989.261719" xlink:href="#DejaVuSans-100"/>
     </g>
    </g>
    <g id="line2d_55">
     <path d="M 264.275354 114.424489 
L 286.275354 114.424489 
" style="fill:none;stroke:#ed5e93;stroke-linecap:square;stroke-width:1.375;"/>
    </g>
    <g id="line2d_56"/>
    <g id="text_18">
     <!-- GMG_GSSmoother -->
     <defs>
      <path d="M 9.8125 72.90625 
L 24.515625 72.90625 
L 43.109375 23.296875 
L 61.8125 72.90625 
L 76.515625 72.90625 
L 76.515625 0 
L 66.890625 0 
L 66.890625 64.015625 
L 48.09375 14.015625 
L 38.1875 14.015625 
L 19.390625 64.015625 
L 19.390625 0 
L 9.8125 0 
z
" id="DejaVuSans-77"/>
      <path d="M 53.515625 70.515625 
L 53.515625 60.890625 
Q 47.90625 63.578125 42.921875 64.890625 
Q 37.9375 66.21875 33.296875 66.21875 
Q 25.25 66.21875 20.875 63.09375 
Q 16.5 59.96875 16.5 54.203125 
Q 16.5 49.359375 19.40625 46.890625 
Q 22.3125 44.4375 30.421875 42.921875 
L 36.375 41.703125 
Q 47.40625 39.59375 52.65625 34.296875 
Q 57.90625 29 57.90625 20.125 
Q 57.90625 9.515625 50.796875 4.046875 
Q 43.703125 -1.421875 29.984375 -1.421875 
Q 24.8125 -1.421875 18.96875 -0.25 
Q 13.140625 0.921875 6.890625 3.21875 
L 6.890625 13.375 
Q 12.890625 10.015625 18.65625 8.296875 
Q 24.421875 6.59375 29.984375 6.59375 
Q 38.421875 6.59375 43.015625 9.90625 
Q 47.609375 13.234375 47.609375 19.390625 
Q 47.609375 24.75 44.3125 27.78125 
Q 41.015625 30.8125 33.5 32.328125 
L 27.484375 33.5 
Q 16.453125 35.6875 11.515625 40.375 
Q 6.59375 45.0625 6.59375 53.421875 
Q 6.59375 63.09375 13.40625 68.65625 
Q 20.21875 74.21875 32.171875 74.21875 
Q 37.3125 74.21875 42.625 73.28125 
Q 47.953125 72.359375 53.515625 70.515625 
z
" id="DejaVuSans-83"/>
     </defs>
     <g transform="translate(295.075354 118.274489)scale(0.11 -0.11)">
      <use xlink:href="#DejaVuSans-71"/>
      <use x="77.490234" xlink:href="#DejaVuSans-77"/>
      <use x="163.769531" xlink:href="#DejaVuSans-71"/>
      <use x="241.259766" xlink:href="#DejaVuSans-95"/>
      <use x="291.259766" xlink:href="#DejaVuSans-71"/>
      <use x="368.75" xlink:href="#DejaVuSans-83"/>
      <use x="432.226562" xlink:href="#DejaVuSans-83"/>
      <use x="495.703125" xlink:href="#DejaVuSans-109"/>
      <use x="593.115234" xlink:href="#DejaVuSans-111"/>
      <use x="654.296875" xlink:href="#DejaVuSans-111"/>
      <use x="715.478516" xlink:href="#DejaVuSans-116"/>
      <use x="754.6875" xlink:href="#DejaVuSans-104"/>
      <use x="818.066406" xlink:href="#DejaVuSans-101"/>
      <use x="879.589844" xlink:href="#DejaVuSans-114"/>
     </g>
    </g>
    <g id="line2d_57">
     <path d="M 264.275354 130.876364 
L 286.275354 130.876364 
" style="fill:none;stroke:#c68225;stroke-linecap:square;stroke-width:1.375;"/>
    </g>
    <g id="line2d_58"/>
    <g id="text_19">
     <!-- PCGAMG{SmoothA} -->
     <defs>
      <path d="M 34.1875 63.1875 
L 20.796875 26.90625 
L 47.609375 26.90625 
z
M 28.609375 72.90625 
L 39.796875 72.90625 
L 67.578125 0 
L 57.328125 0 
L 50.6875 18.703125 
L 17.828125 18.703125 
L 11.1875 0 
L 0.78125 0 
z
" id="DejaVuSans-65"/>
      <path d="M 51.125 -9.28125 
L 51.125 -16.3125 
L 48.09375 -16.3125 
Q 35.9375 -16.3125 31.8125 -12.6875 
Q 27.6875 -9.078125 27.6875 1.703125 
L 27.6875 13.375 
Q 27.6875 20.75 25.046875 23.578125 
Q 22.40625 26.421875 15.484375 26.421875 
L 12.5 26.421875 
L 12.5 33.40625 
L 15.484375 33.40625 
Q 22.46875 33.40625 25.078125 36.203125 
Q 27.6875 39.015625 27.6875 46.296875 
L 27.6875 58.015625 
Q 27.6875 68.796875 31.8125 72.390625 
Q 35.9375 75.984375 48.09375 75.984375 
L 51.125 75.984375 
L 51.125 69 
L 47.796875 69 
Q 40.921875 69 38.8125 66.84375 
Q 36.71875 64.703125 36.71875 57.8125 
L 36.71875 45.703125 
Q 36.71875 38.03125 34.5 34.5625 
Q 32.28125 31.109375 26.90625 29.890625 
Q 32.328125 28.5625 34.515625 25.09375 
Q 36.71875 21.625 36.71875 14.015625 
L 36.71875 1.90625 
Q 36.71875 -4.984375 38.8125 -7.125 
Q 40.921875 -9.28125 47.796875 -9.28125 
z
" id="DejaVuSans-123"/>
      <path d="M 12.5 -9.28125 
L 15.921875 -9.28125 
Q 22.75 -9.28125 24.828125 -7.171875 
Q 26.90625 -5.078125 26.90625 1.90625 
L 26.90625 14.015625 
Q 26.90625 21.625 29.09375 25.09375 
Q 31.296875 28.5625 36.71875 29.890625 
Q 31.296875 31.109375 29.09375 34.5625 
Q 26.90625 38.03125 26.90625 45.703125 
L 26.90625 57.8125 
Q 26.90625 64.75 24.828125 66.875 
Q 22.75 69 15.921875 69 
L 12.5 69 
L 12.5 75.984375 
L 15.578125 75.984375 
Q 27.734375 75.984375 31.8125 72.390625 
Q 35.890625 68.796875 35.890625 58.015625 
L 35.890625 46.296875 
Q 35.890625 39.015625 38.515625 36.203125 
Q 41.15625 33.40625 48.09375 33.40625 
L 51.125 33.40625 
L 51.125 26.421875 
L 48.09375 26.421875 
Q 41.15625 26.421875 38.515625 23.578125 
Q 35.890625 20.75 35.890625 13.375 
L 35.890625 1.703125 
Q 35.890625 -9.078125 31.8125 -12.6875 
Q 27.734375 -16.3125 15.578125 -16.3125 
L 12.5 -16.3125 
z
" id="DejaVuSans-125"/>
     </defs>
     <g transform="translate(295.075354 134.726364)scale(0.11 -0.11)">
      <use xlink:href="#DejaVuSans-80"/>
      <use x="60.302734" xlink:href="#DejaVuSans-67"/>
      <use x="130.126953" xlink:href="#DejaVuSans-71"/>
      <use x="207.617188" xlink:href="#DejaVuSans-65"/>
      <use x="276.025391" xlink:href="#DejaVuSans-77"/>
      <use x="362.304688" xlink:href="#DejaVuSans-71"/>
      <use x="439.794922" xlink:href="#DejaVuSans-123"/>
      <use x="503.417969" xlink:href="#DejaVuSans-83"/>
      <use x="566.894531" xlink:href="#DejaVuSans-109"/>
      <use x="664.306641" xlink:href="#DejaVuSans-111"/>
      <use x="725.488281" xlink:href="#DejaVuSans-111"/>
      <use x="786.669922" xlink:href="#DejaVuSans-116"/>
      <use x="825.878906" xlink:href="#DejaVuSans-104"/>
      <use x="889.257812" xlink:href="#DejaVuSans-65"/>
      <use x="957.666016" xlink:href="#DejaVuSans-125"/>
     </g>
    </g>
    <g id="line2d_59">
     <path d="M 264.275354 147.022302 
L 286.275354 147.022302 
" style="fill:none;stroke:#00a98d;stroke-linecap:square;stroke-width:1.375;"/>
    </g>
    <g id="line2d_60"/>
    <g id="text_20">
     <!-- SparseAMG -->
     <defs>
      <path d="M 18.109375 8.203125 
L 18.109375 -20.796875 
L 9.078125 -20.796875 
L 9.078125 54.6875 
L 18.109375 54.6875 
L 18.109375 46.390625 
Q 20.953125 51.265625 25.265625 53.625 
Q 29.59375 56 35.59375 56 
Q 45.5625 56 51.78125 48.09375 
Q 58.015625 40.1875 58.015625 27.296875 
Q 58.015625 14.40625 51.78125 6.484375 
Q 45.5625 -1.421875 35.59375 -1.421875 
Q 29.59375 -1.421875 25.265625 0.953125 
Q 20.953125 3.328125 18.109375 8.203125 
z
M 48.6875 27.296875 
Q 48.6875 37.203125 44.609375 42.84375 
Q 40.53125 48.484375 33.40625 48.484375 
Q 26.265625 48.484375 22.1875 42.84375 
Q 18.109375 37.203125 18.109375 27.296875 
Q 18.109375 17.390625 22.1875 11.75 
Q 26.265625 6.109375 33.40625 6.109375 
Q 40.53125 6.109375 44.609375 11.75 
Q 48.6875 17.390625 48.6875 27.296875 
z
" id="DejaVuSans-112"/>
     </defs>
     <g transform="translate(295.075354 150.872302)scale(0.11 -0.11)">
      <use xlink:href="#DejaVuSans-83"/>
      <use x="63.476562" xlink:href="#DejaVuSans-112"/>
      <use x="126.953125" xlink:href="#DejaVuSans-97"/>
      <use x="188.232422" xlink:href="#DejaVuSans-114"/>
      <use x="229.345703" xlink:href="#DejaVuSans-115"/>
      <use x="281.445312" xlink:href="#DejaVuSans-101"/>
      <use x="342.96875" xlink:href="#DejaVuSans-65"/>
      <use x="411.376953" xlink:href="#DejaVuSans-77"/>
      <use x="497.65625" xlink:href="#DejaVuSans-71"/>
     </g>
    </g>
    <g id="line2d_61">
     <path d="M 264.275354 163.168239 
L 286.275354 163.168239 
" style="fill:none;stroke:#8e971e;stroke-linecap:square;stroke-width:1.375;"/>
    </g>
    <g id="line2d_62"/>
    <g id="text_21">
     <!-- PCGAMG{RugeStuben} -->
     <g transform="translate(295.075354 167.018239)scale(0.11 -0.11)">
      <use xlink:href="#DejaVuSans-80"/>
      <use x="60.302734" xlink:href="#DejaVuSans-67"/>
      <use x="130.126953" xlink:href="#DejaVuSans-71"/>
      <use x="207.617188" xlink:href="#DejaVuSans-65"/>
      <use x="276.025391" xlink:href="#DejaVuSans-77"/>
      <use x="362.304688" xlink:href="#DejaVuSans-71"/>
      <use x="439.794922" xlink:href="#DejaVuSans-123"/>
      <use x="503.417969" xlink:href="#DejaVuSans-82"/>
      <use x="568.400391" xlink:href="#DejaVuSans-117"/>
      <use x="631.779297" xlink:href="#DejaVuSans-103"/>
      <use x="695.255859" xlink:href="#DejaVuSans-101"/>
      <use x="756.779297" xlink:href="#DejaVuSans-83"/>
      <use x="820.255859" xlink:href="#DejaVuSans-116"/>
      <use x="859.464844" xlink:href="#DejaVuSans-117"/>
      <use x="922.84375" xlink:href="#DejaVuSans-98"/>
      <use x="986.320312" xlink:href="#DejaVuSans-101"/>
      <use x="1047.84375" xlink:href="#DejaVuSans-110"/>
      <use x="1111.222656" xlink:href="#DejaVuSans-125"/>
     </g>
    </g>
    <g id="line2d_63">
     <path d="M 264.275354 179.314177 
L 286.275354 179.314177 
" style="fill:none;stroke:#00a9cc;stroke-linecap:square;stroke-width:1.375;"/>
    </g>
    <g id="line2d_64"/>
    <g id="text_22">
     <!-- PCGILU -->
     <defs>
      <path d="M 9.8125 72.90625 
L 19.671875 72.90625 
L 19.671875 8.296875 
L 55.171875 8.296875 
L 55.171875 0 
L 9.8125 0 
z
" id="DejaVuSans-76"/>
      <path d="M 8.6875 72.90625 
L 18.609375 72.90625 
L 18.609375 28.609375 
Q 18.609375 16.890625 22.84375 11.734375 
Q 27.09375 6.59375 36.625 6.59375 
Q 46.09375 6.59375 50.34375 11.734375 
Q 54.59375 16.890625 54.59375 28.609375 
L 54.59375 72.90625 
L 64.5 72.90625 
L 64.5 27.390625 
Q 64.5 13.140625 57.4375 5.859375 
Q 50.390625 -1.421875 36.625 -1.421875 
Q 22.796875 -1.421875 15.734375 5.859375 
Q 8.6875 13.140625 8.6875 27.390625 
z
" id="DejaVuSans-85"/>
     </defs>
     <g transform="translate(295.075354 183.164177)scale(0.11 -0.11)">
      <use xlink:href="#DejaVuSans-80"/>
      <use x="60.302734" xlink:href="#DejaVuSans-67"/>
      <use x="130.126953" xlink:href="#DejaVuSans-71"/>
      <use x="207.617188" xlink:href="#DejaVuSans-73"/>
      <use x="237.109375" xlink:href="#DejaVuSans-76"/>
      <use x="287.822266" xlink:href="#DejaVuSans-85"/>
     </g>
    </g>
   </g>
  </g>
 </g>
 <defs>
  <clipPath id="p9eacfde1b3">
   <rect height="252.510709" width="199.277498" x="55.097856" y="2.834646"/>
  </clipPath>
 </defs>
</svg>
