<?xml version="1.0" encoding="utf-8" standalone="no"?>
<!DOCTYPE svg PUBLIC "-//W3C//DTD SVG 1.1//EN"
  "http://www.w3.org/Graphics/SVG/1.1/DTD/svg11.dtd">
<!-- Created with matplotlib (https://matplotlib.org/) -->
<svg height="288pt" version="1.1" viewBox="0 0 432 288" width="432pt" xmlns="http://www.w3.org/2000/svg" xmlns:xlink="http://www.w3.org/1999/xlink">
 <defs>
  <style type="text/css">
*{stroke-linecap:butt;stroke-linejoin:round;}
  </style>
 </defs>
 <g id="figure_1">
  <g id="patch_1">
   <path d="M 0 288 
L 432 288 
L 432 0 
L 0 0 
z
" style="fill:#ffffff;"/>
  </g>
  <g id="axes_1">
   <g id="patch_2">
    <path d="M 55.097856 255.345354 
L 429.165354 255.345354 
L 429.165354 2.834646 
L 55.097856 2.834646 
z
" style="fill:#ffffff;"/>
   </g>
   <g id="matplotlib.axis_1">
    <g id="xtick_1">
     <g id="line2d_1">
      <path clip-path="url(#pf548a1aa5b)" d="M 109.796406 255.345354 
L 109.796406 2.834646 
" style="fill:none;stroke:#000000;stroke-linecap:square;stroke-opacity:0.1;stroke-width:0.5;"/>
     </g>
     <g id="line2d_2">
      <defs>
       <path d="M 0 0 
L 0 -3.5 
" id="m5a6e17c6d9" style="stroke:#000000;stroke-width:0.5;"/>
      </defs>
      <g>
       <use style="stroke:#000000;stroke-width:0.5;" x="109.796406" xlink:href="#m5a6e17c6d9" y="255.345354"/>
      </g>
     </g>
     <g id="text_1">
      <!-- $3$ -->
      <defs>
       <path d="M 40.578125 39.3125 
Q 47.65625 37.796875 51.625 33 
Q 55.609375 28.21875 55.609375 21.1875 
Q 55.609375 10.40625 48.1875 4.484375 
Q 40.765625 -1.421875 27.09375 -1.421875 
Q 22.515625 -1.421875 17.65625 -0.515625 
Q 12.796875 0.390625 7.625 2.203125 
L 7.625 11.71875 
Q 11.71875 9.328125 16.59375 8.109375 
Q 21.484375 6.890625 26.8125 6.890625 
Q 36.078125 6.890625 40.9375 10.546875 
Q 45.796875 14.203125 45.796875 21.1875 
Q 45.796875 27.640625 41.28125 31.265625 
Q 36.765625 34.90625 28.71875 34.90625 
L 20.21875 34.90625 
L 20.21875 43.015625 
L 29.109375 43.015625 
Q 36.375 43.015625 40.234375 45.921875 
Q 44.09375 48.828125 44.09375 54.296875 
Q 44.09375 59.90625 40.109375 62.90625 
Q 36.140625 65.921875 28.71875 65.921875 
Q 24.65625 65.921875 20.015625 65.03125 
Q 15.375 64.15625 9.8125 62.3125 
L 9.8125 71.09375 
Q 15.4375 72.65625 20.34375 73.4375 
Q 25.25 74.21875 29.59375 74.21875 
Q 40.828125 74.21875 47.359375 69.109375 
Q 53.90625 64.015625 53.90625 55.328125 
Q 53.90625 49.265625 50.4375 45.09375 
Q 46.96875 40.921875 40.578125 39.3125 
z
" id="DejaVuSans-51"/>
      </defs>
      <g transform="translate(105.956406 267.963479)scale(0.12 -0.12)">
       <use transform="translate(0 0.78125)" xlink:href="#DejaVuSans-51"/>
      </g>
     </g>
    </g>
    <g id="xtick_2">
     <g id="line2d_3">
      <path clip-path="url(#pf548a1aa5b)" d="M 175.964006 255.345354 
L 175.964006 2.834646 
" style="fill:none;stroke:#000000;stroke-linecap:square;stroke-opacity:0.1;stroke-width:0.5;"/>
     </g>
     <g id="line2d_4">
      <g>
       <use style="stroke:#000000;stroke-width:0.5;" x="175.964006" xlink:href="#m5a6e17c6d9" y="255.345354"/>
      </g>
     </g>
     <g id="text_2">
      <!-- $6$ -->
      <defs>
       <path d="M 33.015625 40.375 
Q 26.375 40.375 22.484375 35.828125 
Q 18.609375 31.296875 18.609375 23.390625 
Q 18.609375 15.53125 22.484375 10.953125 
Q 26.375 6.390625 33.015625 6.390625 
Q 39.65625 6.390625 43.53125 10.953125 
Q 47.40625 15.53125 47.40625 23.390625 
Q 47.40625 31.296875 43.53125 35.828125 
Q 39.65625 40.375 33.015625 40.375 
z
M 52.59375 71.296875 
L 52.59375 62.3125 
Q 48.875 64.0625 45.09375 64.984375 
Q 41.3125 65.921875 37.59375 65.921875 
Q 27.828125 65.921875 22.671875 59.328125 
Q 17.53125 52.734375 16.796875 39.40625 
Q 19.671875 43.65625 24.015625 45.921875 
Q 28.375 48.1875 33.59375 48.1875 
Q 44.578125 48.1875 50.953125 41.515625 
Q 57.328125 34.859375 57.328125 23.390625 
Q 57.328125 12.15625 50.6875 5.359375 
Q 44.046875 -1.421875 33.015625 -1.421875 
Q 20.359375 -1.421875 13.671875 8.265625 
Q 6.984375 17.96875 6.984375 36.375 
Q 6.984375 53.65625 15.1875 63.9375 
Q 23.390625 74.21875 37.203125 74.21875 
Q 40.921875 74.21875 44.703125 73.484375 
Q 48.484375 72.75 52.59375 71.296875 
z
" id="DejaVuSans-54"/>
      </defs>
      <g transform="translate(172.124006 267.963479)scale(0.12 -0.12)">
       <use transform="translate(0 0.78125)" xlink:href="#DejaVuSans-54"/>
      </g>
     </g>
    </g>
    <g id="xtick_3">
     <g id="line2d_5">
      <path clip-path="url(#pf548a1aa5b)" d="M 242.131605 255.345354 
L 242.131605 2.834646 
" style="fill:none;stroke:#000000;stroke-linecap:square;stroke-opacity:0.1;stroke-width:0.5;"/>
     </g>
     <g id="line2d_6">
      <g>
       <use style="stroke:#000000;stroke-width:0.5;" x="242.131605" xlink:href="#m5a6e17c6d9" y="255.345354"/>
      </g>
     </g>
     <g id="text_3">
      <!-- $9$ -->
      <defs>
       <path d="M 10.984375 1.515625 
L 10.984375 10.5 
Q 14.703125 8.734375 18.5 7.8125 
Q 22.3125 6.890625 25.984375 6.890625 
Q 35.75 6.890625 40.890625 13.453125 
Q 46.046875 20.015625 46.78125 33.40625 
Q 43.953125 29.203125 39.59375 26.953125 
Q 35.25 24.703125 29.984375 24.703125 
Q 19.046875 24.703125 12.671875 31.3125 
Q 6.296875 37.9375 6.296875 49.421875 
Q 6.296875 60.640625 12.9375 67.421875 
Q 19.578125 74.21875 30.609375 74.21875 
Q 43.265625 74.21875 49.921875 64.515625 
Q 56.59375 54.828125 56.59375 36.375 
Q 56.59375 19.140625 48.40625 8.859375 
Q 40.234375 -1.421875 26.421875 -1.421875 
Q 22.703125 -1.421875 18.890625 -0.6875 
Q 15.09375 0.046875 10.984375 1.515625 
z
M 30.609375 32.421875 
Q 37.25 32.421875 41.125 36.953125 
Q 45.015625 41.5 45.015625 49.421875 
Q 45.015625 57.28125 41.125 61.84375 
Q 37.25 66.40625 30.609375 66.40625 
Q 23.96875 66.40625 20.09375 61.84375 
Q 16.21875 57.28125 16.21875 49.421875 
Q 16.21875 41.5 20.09375 36.953125 
Q 23.96875 32.421875 30.609375 32.421875 
z
" id="DejaVuSans-57"/>
      </defs>
      <g transform="translate(238.291605 267.963479)scale(0.12 -0.12)">
       <use transform="translate(0 0.78125)" xlink:href="#DejaVuSans-57"/>
      </g>
     </g>
    </g>
    <g id="xtick_4">
     <g id="line2d_7">
      <path clip-path="url(#pf548a1aa5b)" d="M 308.299205 255.345354 
L 308.299205 2.834646 
" style="fill:none;stroke:#000000;stroke-linecap:square;stroke-opacity:0.1;stroke-width:0.5;"/>
     </g>
     <g id="line2d_8">
      <g>
       <use style="stroke:#000000;stroke-width:0.5;" x="308.299205" xlink:href="#m5a6e17c6d9" y="255.345354"/>
      </g>
     </g>
     <g id="text_4">
      <!-- $12$ -->
      <defs>
       <path d="M 12.40625 8.296875 
L 28.515625 8.296875 
L 28.515625 63.921875 
L 10.984375 60.40625 
L 10.984375 69.390625 
L 28.421875 72.90625 
L 38.28125 72.90625 
L 38.28125 8.296875 
L 54.390625 8.296875 
L 54.390625 0 
L 12.40625 0 
z
" id="DejaVuSans-49"/>
       <path d="M 19.1875 8.296875 
L 53.609375 8.296875 
L 53.609375 0 
L 7.328125 0 
L 7.328125 8.296875 
Q 12.9375 14.109375 22.625 23.890625 
Q 32.328125 33.6875 34.8125 36.53125 
Q 39.546875 41.84375 41.421875 45.53125 
Q 43.3125 49.21875 43.3125 52.78125 
Q 43.3125 58.59375 39.234375 62.25 
Q 35.15625 65.921875 28.609375 65.921875 
Q 23.96875 65.921875 18.8125 64.3125 
Q 13.671875 62.703125 7.8125 59.421875 
L 7.8125 69.390625 
Q 13.765625 71.78125 18.9375 73 
Q 24.125 74.21875 28.421875 74.21875 
Q 39.75 74.21875 46.484375 68.546875 
Q 53.21875 62.890625 53.21875 53.421875 
Q 53.21875 48.921875 51.53125 44.890625 
Q 49.859375 40.875 45.40625 35.40625 
Q 44.1875 33.984375 37.640625 27.21875 
Q 31.109375 20.453125 19.1875 8.296875 
z
" id="DejaVuSans-50"/>
      </defs>
      <g transform="translate(300.619205 267.963479)scale(0.12 -0.12)">
       <use transform="translate(0 0.78125)" xlink:href="#DejaVuSans-49"/>
       <use transform="translate(63.623047 0.78125)" xlink:href="#DejaVuSans-50"/>
      </g>
     </g>
    </g>
    <g id="xtick_5">
     <g id="line2d_9">
      <path clip-path="url(#pf548a1aa5b)" d="M 374.466805 255.345354 
L 374.466805 2.834646 
" style="fill:none;stroke:#000000;stroke-linecap:square;stroke-opacity:0.1;stroke-width:0.5;"/>
     </g>
     <g id="line2d_10">
      <g>
       <use style="stroke:#000000;stroke-width:0.5;" x="374.466805" xlink:href="#m5a6e17c6d9" y="255.345354"/>
      </g>
     </g>
     <g id="text_5">
      <!-- $15$ -->
      <defs>
       <path d="M 10.796875 72.90625 
L 49.515625 72.90625 
L 49.515625 64.59375 
L 19.828125 64.59375 
L 19.828125 46.734375 
Q 21.96875 47.46875 24.109375 47.828125 
Q 26.265625 48.1875 28.421875 48.1875 
Q 40.625 48.1875 47.75 41.5 
Q 54.890625 34.8125 54.890625 23.390625 
Q 54.890625 11.625 47.5625 5.09375 
Q 40.234375 -1.421875 26.90625 -1.421875 
Q 22.3125 -1.421875 17.546875 -0.640625 
Q 12.796875 0.140625 7.71875 1.703125 
L 7.71875 11.625 
Q 12.109375 9.234375 16.796875 8.0625 
Q 21.484375 6.890625 26.703125 6.890625 
Q 35.15625 6.890625 40.078125 11.328125 
Q 45.015625 15.765625 45.015625 23.390625 
Q 45.015625 31 40.078125 35.4375 
Q 35.15625 39.890625 26.703125 39.890625 
Q 22.75 39.890625 18.8125 39.015625 
Q 14.890625 38.140625 10.796875 36.28125 
z
" id="DejaVuSans-53"/>
      </defs>
      <g transform="translate(366.786805 267.963479)scale(0.12 -0.12)">
       <use transform="translate(0 0.09375)" xlink:href="#DejaVuSans-49"/>
       <use transform="translate(63.623047 0.09375)" xlink:href="#DejaVuSans-53"/>
      </g>
     </g>
    </g>
    <g id="text_6">
     <!-- Iteration # -->
     <defs>
      <path d="M 9.8125 72.90625 
L 19.671875 72.90625 
L 19.671875 0 
L 9.8125 0 
z
" id="DejaVuSans-73"/>
      <path d="M 18.3125 70.21875 
L 18.3125 54.6875 
L 36.8125 54.6875 
L 36.8125 47.703125 
L 18.3125 47.703125 
L 18.3125 18.015625 
Q 18.3125 11.328125 20.140625 9.421875 
Q 21.96875 7.515625 27.59375 7.515625 
L 36.8125 7.515625 
L 36.8125 0 
L 27.59375 0 
Q 17.1875 0 13.234375 3.875 
Q 9.28125 7.765625 9.28125 18.015625 
L 9.28125 47.703125 
L 2.6875 47.703125 
L 2.6875 54.6875 
L 9.28125 54.6875 
L 9.28125 70.21875 
z
" id="DejaVuSans-116"/>
      <path d="M 56.203125 29.59375 
L 56.203125 25.203125 
L 14.890625 25.203125 
Q 15.484375 15.921875 20.484375 11.0625 
Q 25.484375 6.203125 34.421875 6.203125 
Q 39.59375 6.203125 44.453125 7.46875 
Q 49.3125 8.734375 54.109375 11.28125 
L 54.109375 2.78125 
Q 49.265625 0.734375 44.1875 -0.34375 
Q 39.109375 -1.421875 33.890625 -1.421875 
Q 20.796875 -1.421875 13.15625 6.1875 
Q 5.515625 13.8125 5.515625 26.8125 
Q 5.515625 40.234375 12.765625 48.109375 
Q 20.015625 56 32.328125 56 
Q 43.359375 56 49.78125 48.890625 
Q 56.203125 41.796875 56.203125 29.59375 
z
M 47.21875 32.234375 
Q 47.125 39.59375 43.09375 43.984375 
Q 39.0625 48.390625 32.421875 48.390625 
Q 24.90625 48.390625 20.390625 44.140625 
Q 15.875 39.890625 15.1875 32.171875 
z
" id="DejaVuSans-101"/>
      <path d="M 41.109375 46.296875 
Q 39.59375 47.171875 37.8125 47.578125 
Q 36.03125 48 33.890625 48 
Q 26.265625 48 22.1875 43.046875 
Q 18.109375 38.09375 18.109375 28.8125 
L 18.109375 0 
L 9.078125 0 
L 9.078125 54.6875 
L 18.109375 54.6875 
L 18.109375 46.1875 
Q 20.953125 51.171875 25.484375 53.578125 
Q 30.03125 56 36.53125 56 
Q 37.453125 56 38.578125 55.875 
Q 39.703125 55.765625 41.0625 55.515625 
z
" id="DejaVuSans-114"/>
      <path d="M 34.28125 27.484375 
Q 23.390625 27.484375 19.1875 25 
Q 14.984375 22.515625 14.984375 16.5 
Q 14.984375 11.71875 18.140625 8.90625 
Q 21.296875 6.109375 26.703125 6.109375 
Q 34.1875 6.109375 38.703125 11.40625 
Q 43.21875 16.703125 43.21875 25.484375 
L 43.21875 27.484375 
z
M 52.203125 31.203125 
L 52.203125 0 
L 43.21875 0 
L 43.21875 8.296875 
Q 40.140625 3.328125 35.546875 0.953125 
Q 30.953125 -1.421875 24.3125 -1.421875 
Q 15.921875 -1.421875 10.953125 3.296875 
Q 6 8.015625 6 15.921875 
Q 6 25.140625 12.171875 29.828125 
Q 18.359375 34.515625 30.609375 34.515625 
L 43.21875 34.515625 
L 43.21875 35.40625 
Q 43.21875 41.609375 39.140625 45 
Q 35.0625 48.390625 27.6875 48.390625 
Q 23 48.390625 18.546875 47.265625 
Q 14.109375 46.140625 10.015625 43.890625 
L 10.015625 52.203125 
Q 14.9375 54.109375 19.578125 55.046875 
Q 24.21875 56 28.609375 56 
Q 40.484375 56 46.34375 49.84375 
Q 52.203125 43.703125 52.203125 31.203125 
z
" id="DejaVuSans-97"/>
      <path d="M 9.421875 54.6875 
L 18.40625 54.6875 
L 18.40625 0 
L 9.421875 0 
z
M 9.421875 75.984375 
L 18.40625 75.984375 
L 18.40625 64.59375 
L 9.421875 64.59375 
z
" id="DejaVuSans-105"/>
      <path d="M 30.609375 48.390625 
Q 23.390625 48.390625 19.1875 42.75 
Q 14.984375 37.109375 14.984375 27.296875 
Q 14.984375 17.484375 19.15625 11.84375 
Q 23.34375 6.203125 30.609375 6.203125 
Q 37.796875 6.203125 41.984375 11.859375 
Q 46.1875 17.53125 46.1875 27.296875 
Q 46.1875 37.015625 41.984375 42.703125 
Q 37.796875 48.390625 30.609375 48.390625 
z
M 30.609375 56 
Q 42.328125 56 49.015625 48.375 
Q 55.71875 40.765625 55.71875 27.296875 
Q 55.71875 13.875 49.015625 6.21875 
Q 42.328125 -1.421875 30.609375 -1.421875 
Q 18.84375 -1.421875 12.171875 6.21875 
Q 5.515625 13.875 5.515625 27.296875 
Q 5.515625 40.765625 12.171875 48.375 
Q 18.84375 56 30.609375 56 
z
" id="DejaVuSans-111"/>
      <path d="M 54.890625 33.015625 
L 54.890625 0 
L 45.90625 0 
L 45.90625 32.71875 
Q 45.90625 40.484375 42.875 44.328125 
Q 39.84375 48.1875 33.796875 48.1875 
Q 26.515625 48.1875 22.3125 43.546875 
Q 18.109375 38.921875 18.109375 30.90625 
L 18.109375 0 
L 9.078125 0 
L 9.078125 54.6875 
L 18.109375 54.6875 
L 18.109375 46.1875 
Q 21.34375 51.125 25.703125 53.5625 
Q 30.078125 56 35.796875 56 
Q 45.21875 56 50.046875 50.171875 
Q 54.890625 44.34375 54.890625 33.015625 
z
" id="DejaVuSans-110"/>
      <path id="DejaVuSans-32"/>
      <path d="M 51.125 44 
L 36.921875 44 
L 32.8125 27.6875 
L 47.125 27.6875 
z
M 43.796875 71.78125 
L 38.71875 51.515625 
L 52.984375 51.515625 
L 58.109375 71.78125 
L 65.921875 71.78125 
L 60.890625 51.515625 
L 76.125 51.515625 
L 76.125 44 
L 58.984375 44 
L 54.984375 27.6875 
L 70.515625 27.6875 
L 70.515625 20.21875 
L 53.078125 20.21875 
L 48 0 
L 40.1875 0 
L 45.21875 20.21875 
L 30.90625 20.21875 
L 25.875 0 
L 18.015625 0 
L 23.09375 20.21875 
L 7.71875 20.21875 
L 7.71875 27.6875 
L 24.90625 27.6875 
L 29 44 
L 13.28125 44 
L 13.28125 51.515625 
L 30.90625 51.515625 
L 35.890625 71.78125 
z
" id="DejaVuSans-35"/>
     </defs>
     <g transform="translate(209.746605 283.577229)scale(0.12 -0.12)">
      <use xlink:href="#DejaVuSans-73"/>
      <use x="29.492188" xlink:href="#DejaVuSans-116"/>
      <use x="68.701172" xlink:href="#DejaVuSans-101"/>
      <use x="130.224609" xlink:href="#DejaVuSans-114"/>
      <use x="171.337891" xlink:href="#DejaVuSans-97"/>
      <use x="232.617188" xlink:href="#DejaVuSans-116"/>
      <use x="271.826172" xlink:href="#DejaVuSans-105"/>
      <use x="299.609375" xlink:href="#DejaVuSans-111"/>
      <use x="360.791016" xlink:href="#DejaVuSans-110"/>
      <use x="424.169922" xlink:href="#DejaVuSans-32"/>
      <use x="455.957031" xlink:href="#DejaVuSans-35"/>
     </g>
    </g>
   </g>
   <g id="matplotlib.axis_2">
    <g id="ytick_1">
     <g id="line2d_11">
      <path clip-path="url(#pf548a1aa5b)" d="M 55.097856 246.025714 
L 429.165354 246.025714 
" style="fill:none;stroke:#000000;stroke-linecap:square;stroke-opacity:0.1;stroke-width:0.5;"/>
     </g>
     <g id="line2d_12">
      <defs>
       <path d="M 0 0 
L 3.5 0 
" id="m6e2959c8ba" style="stroke:#000000;stroke-width:0.5;"/>
      </defs>
      <g>
       <use style="stroke:#000000;stroke-width:0.5;" x="55.097856" xlink:href="#m6e2959c8ba" y="246.025714"/>
      </g>
     </g>
     <g id="text_7">
      <!-- $10^{-10}$ -->
      <defs>
       <path d="M 31.78125 66.40625 
Q 24.171875 66.40625 20.328125 58.90625 
Q 16.5 51.421875 16.5 36.375 
Q 16.5 21.390625 20.328125 13.890625 
Q 24.171875 6.390625 31.78125 6.390625 
Q 39.453125 6.390625 43.28125 13.890625 
Q 47.125 21.390625 47.125 36.375 
Q 47.125 51.421875 43.28125 58.90625 
Q 39.453125 66.40625 31.78125 66.40625 
z
M 31.78125 74.21875 
Q 44.046875 74.21875 50.515625 64.515625 
Q 56.984375 54.828125 56.984375 36.375 
Q 56.984375 17.96875 50.515625 8.265625 
Q 44.046875 -1.421875 31.78125 -1.421875 
Q 19.53125 -1.421875 13.0625 8.265625 
Q 6.59375 17.96875 6.59375 36.375 
Q 6.59375 54.828125 13.0625 64.515625 
Q 19.53125 74.21875 31.78125 74.21875 
z
" id="DejaVuSans-48"/>
       <path d="M 10.59375 35.5 
L 73.1875 35.5 
L 73.1875 27.203125 
L 10.59375 27.203125 
z
" id="DejaVuSans-8722"/>
      </defs>
      <g transform="translate(18.117856 250.584777)scale(0.12 -0.12)">
       <use transform="translate(0 0.765625)" xlink:href="#DejaVuSans-49"/>
       <use transform="translate(63.623047 0.765625)" xlink:href="#DejaVuSans-48"/>
       <use transform="translate(128.203125 39.046875)scale(0.7)" xlink:href="#DejaVuSans-8722"/>
       <use transform="translate(186.855469 39.046875)scale(0.7)" xlink:href="#DejaVuSans-49"/>
       <use transform="translate(231.391602 39.046875)scale(0.7)" xlink:href="#DejaVuSans-48"/>
      </g>
     </g>
    </g>
    <g id="ytick_2">
     <g id="line2d_13">
      <path clip-path="url(#pf548a1aa5b)" d="M 55.097856 174.187149 
L 429.165354 174.187149 
" style="fill:none;stroke:#000000;stroke-linecap:square;stroke-opacity:0.1;stroke-width:0.5;"/>
     </g>
     <g id="line2d_14">
      <g>
       <use style="stroke:#000000;stroke-width:0.5;" x="55.097856" xlink:href="#m6e2959c8ba" y="174.187149"/>
      </g>
     </g>
     <g id="text_8">
      <!-- $10^{-5}$ -->
      <g transform="translate(23.397856 178.746211)scale(0.12 -0.12)">
       <use transform="translate(0 0.684375)" xlink:href="#DejaVuSans-49"/>
       <use transform="translate(63.623047 0.684375)" xlink:href="#DejaVuSans-48"/>
       <use transform="translate(128.203125 38.965625)scale(0.7)" xlink:href="#DejaVuSans-8722"/>
       <use transform="translate(186.855469 38.965625)scale(0.7)" xlink:href="#DejaVuSans-53"/>
      </g>
     </g>
    </g>
    <g id="ytick_3">
     <g id="line2d_15">
      <path clip-path="url(#pf548a1aa5b)" d="M 55.097856 102.348583 
L 429.165354 102.348583 
" style="fill:none;stroke:#000000;stroke-linecap:square;stroke-opacity:0.1;stroke-width:0.5;"/>
     </g>
     <g id="line2d_16">
      <g>
       <use style="stroke:#000000;stroke-width:0.5;" x="55.097856" xlink:href="#m6e2959c8ba" y="102.348583"/>
      </g>
     </g>
     <g id="text_9">
      <!-- $10^{0}$ -->
      <g transform="translate(30.477856 106.907646)scale(0.12 -0.12)">
       <use transform="translate(0 0.765625)" xlink:href="#DejaVuSans-49"/>
       <use transform="translate(63.623047 0.765625)" xlink:href="#DejaVuSans-48"/>
       <use transform="translate(128.203125 39.046875)scale(0.7)" xlink:href="#DejaVuSans-48"/>
      </g>
     </g>
    </g>
    <g id="ytick_4">
     <g id="line2d_17">
      <path clip-path="url(#pf548a1aa5b)" d="M 55.097856 30.510017 
L 429.165354 30.510017 
" style="fill:none;stroke:#000000;stroke-linecap:square;stroke-opacity:0.1;stroke-width:0.5;"/>
     </g>
     <g id="line2d_18">
      <g>
       <use style="stroke:#000000;stroke-width:0.5;" x="55.097856" xlink:href="#m6e2959c8ba" y="30.510017"/>
      </g>
     </g>
     <g id="text_10">
      <!-- $10^{5}$ -->
      <g transform="translate(30.477856 35.06908)scale(0.12 -0.12)">
       <use transform="translate(0 0.684375)" xlink:href="#DejaVuSans-49"/>
       <use transform="translate(63.623047 0.684375)" xlink:href="#DejaVuSans-48"/>
       <use transform="translate(128.203125 38.965625)scale(0.7)" xlink:href="#DejaVuSans-53"/>
      </g>
     </g>
    </g>
    <g id="ytick_5">
     <g id="line2d_19">
      <defs>
       <path d="M 0 0 
L -2 0 
" id="mad59fc9e69" style="stroke:#000000;stroke-width:0.6;"/>
      </defs>
      <g>
       <use style="stroke:#000000;stroke-width:0.6;" x="55.097856" xlink:href="#mad59fc9e69" y="231.658001"/>
      </g>
     </g>
    </g>
    <g id="ytick_6">
     <g id="line2d_20">
      <g>
       <use style="stroke:#000000;stroke-width:0.6;" x="55.097856" xlink:href="#mad59fc9e69" y="217.290288"/>
      </g>
     </g>
    </g>
    <g id="ytick_7">
     <g id="line2d_21">
      <g>
       <use style="stroke:#000000;stroke-width:0.6;" x="55.097856" xlink:href="#mad59fc9e69" y="202.922575"/>
      </g>
     </g>
    </g>
    <g id="ytick_8">
     <g id="line2d_22">
      <g>
       <use style="stroke:#000000;stroke-width:0.6;" x="55.097856" xlink:href="#mad59fc9e69" y="188.554862"/>
      </g>
     </g>
    </g>
    <g id="ytick_9">
     <g id="line2d_23">
      <g>
       <use style="stroke:#000000;stroke-width:0.6;" x="55.097856" xlink:href="#mad59fc9e69" y="159.819436"/>
      </g>
     </g>
    </g>
    <g id="ytick_10">
     <g id="line2d_24">
      <g>
       <use style="stroke:#000000;stroke-width:0.6;" x="55.097856" xlink:href="#mad59fc9e69" y="145.451723"/>
      </g>
     </g>
    </g>
    <g id="ytick_11">
     <g id="line2d_25">
      <g>
       <use style="stroke:#000000;stroke-width:0.6;" x="55.097856" xlink:href="#mad59fc9e69" y="131.084009"/>
      </g>
     </g>
    </g>
    <g id="ytick_12">
     <g id="line2d_26">
      <g>
       <use style="stroke:#000000;stroke-width:0.6;" x="55.097856" xlink:href="#mad59fc9e69" y="116.716296"/>
      </g>
     </g>
    </g>
    <g id="ytick_13">
     <g id="line2d_27">
      <g>
       <use style="stroke:#000000;stroke-width:0.6;" x="55.097856" xlink:href="#mad59fc9e69" y="87.98087"/>
      </g>
     </g>
    </g>
    <g id="ytick_14">
     <g id="line2d_28">
      <g>
       <use style="stroke:#000000;stroke-width:0.6;" x="55.097856" xlink:href="#mad59fc9e69" y="73.613157"/>
      </g>
     </g>
    </g>
    <g id="ytick_15">
     <g id="line2d_29">
      <g>
       <use style="stroke:#000000;stroke-width:0.6;" x="55.097856" xlink:href="#mad59fc9e69" y="59.245444"/>
      </g>
     </g>
    </g>
    <g id="ytick_16">
     <g id="line2d_30">
      <g>
       <use style="stroke:#000000;stroke-width:0.6;" x="55.097856" xlink:href="#mad59fc9e69" y="44.877731"/>
      </g>
     </g>
    </g>
    <g id="ytick_17">
     <g id="line2d_31">
      <g>
       <use style="stroke:#000000;stroke-width:0.6;" x="55.097856" xlink:href="#mad59fc9e69" y="16.142304"/>
      </g>
     </g>
    </g>
    <g id="text_11">
     <!-- Residual norm -->
     <defs>
      <path d="M 44.390625 34.1875 
Q 47.5625 33.109375 50.5625 29.59375 
Q 53.5625 26.078125 56.59375 19.921875 
L 66.609375 0 
L 56 0 
L 46.6875 18.703125 
Q 43.0625 26.03125 39.671875 28.421875 
Q 36.28125 30.8125 30.421875 30.8125 
L 19.671875 30.8125 
L 19.671875 0 
L 9.8125 0 
L 9.8125 72.90625 
L 32.078125 72.90625 
Q 44.578125 72.90625 50.734375 67.671875 
Q 56.890625 62.453125 56.890625 51.90625 
Q 56.890625 45.015625 53.6875 40.46875 
Q 50.484375 35.9375 44.390625 34.1875 
z
M 19.671875 64.796875 
L 19.671875 38.921875 
L 32.078125 38.921875 
Q 39.203125 38.921875 42.84375 42.21875 
Q 46.484375 45.515625 46.484375 51.90625 
Q 46.484375 58.296875 42.84375 61.546875 
Q 39.203125 64.796875 32.078125 64.796875 
z
" id="DejaVuSans-82"/>
      <path d="M 44.28125 53.078125 
L 44.28125 44.578125 
Q 40.484375 46.53125 36.375 47.5 
Q 32.28125 48.484375 27.875 48.484375 
Q 21.1875 48.484375 17.84375 46.4375 
Q 14.5 44.390625 14.5 40.28125 
Q 14.5 37.15625 16.890625 35.375 
Q 19.28125 33.59375 26.515625 31.984375 
L 29.59375 31.296875 
Q 39.15625 29.25 43.1875 25.515625 
Q 47.21875 21.78125 47.21875 15.09375 
Q 47.21875 7.46875 41.1875 3.015625 
Q 35.15625 -1.421875 24.609375 -1.421875 
Q 20.21875 -1.421875 15.453125 -0.5625 
Q 10.6875 0.296875 5.421875 2 
L 5.421875 11.28125 
Q 10.40625 8.6875 15.234375 7.390625 
Q 20.0625 6.109375 24.8125 6.109375 
Q 31.15625 6.109375 34.5625 8.28125 
Q 37.984375 10.453125 37.984375 14.40625 
Q 37.984375 18.0625 35.515625 20.015625 
Q 33.0625 21.96875 24.703125 23.78125 
L 21.578125 24.515625 
Q 13.234375 26.265625 9.515625 29.90625 
Q 5.8125 33.546875 5.8125 39.890625 
Q 5.8125 47.609375 11.28125 51.796875 
Q 16.75 56 26.8125 56 
Q 31.78125 56 36.171875 55.265625 
Q 40.578125 54.546875 44.28125 53.078125 
z
" id="DejaVuSans-115"/>
      <path d="M 45.40625 46.390625 
L 45.40625 75.984375 
L 54.390625 75.984375 
L 54.390625 0 
L 45.40625 0 
L 45.40625 8.203125 
Q 42.578125 3.328125 38.25 0.953125 
Q 33.9375 -1.421875 27.875 -1.421875 
Q 17.96875 -1.421875 11.734375 6.484375 
Q 5.515625 14.40625 5.515625 27.296875 
Q 5.515625 40.1875 11.734375 48.09375 
Q 17.96875 56 27.875 56 
Q 33.9375 56 38.25 53.625 
Q 42.578125 51.265625 45.40625 46.390625 
z
M 14.796875 27.296875 
Q 14.796875 17.390625 18.875 11.75 
Q 22.953125 6.109375 30.078125 6.109375 
Q 37.203125 6.109375 41.296875 11.75 
Q 45.40625 17.390625 45.40625 27.296875 
Q 45.40625 37.203125 41.296875 42.84375 
Q 37.203125 48.484375 30.078125 48.484375 
Q 22.953125 48.484375 18.875 42.84375 
Q 14.796875 37.203125 14.796875 27.296875 
z
" id="DejaVuSans-100"/>
      <path d="M 8.5 21.578125 
L 8.5 54.6875 
L 17.484375 54.6875 
L 17.484375 21.921875 
Q 17.484375 14.15625 20.5 10.265625 
Q 23.53125 6.390625 29.59375 6.390625 
Q 36.859375 6.390625 41.078125 11.03125 
Q 45.3125 15.671875 45.3125 23.6875 
L 45.3125 54.6875 
L 54.296875 54.6875 
L 54.296875 0 
L 45.3125 0 
L 45.3125 8.40625 
Q 42.046875 3.421875 37.71875 1 
Q 33.40625 -1.421875 27.6875 -1.421875 
Q 18.265625 -1.421875 13.375 4.4375 
Q 8.5 10.296875 8.5 21.578125 
z
M 31.109375 56 
z
" id="DejaVuSans-117"/>
      <path d="M 9.421875 75.984375 
L 18.40625 75.984375 
L 18.40625 0 
L 9.421875 0 
z
" id="DejaVuSans-108"/>
      <path d="M 52 44.1875 
Q 55.375 50.25 60.0625 53.125 
Q 64.75 56 71.09375 56 
Q 79.640625 56 84.28125 50.015625 
Q 88.921875 44.046875 88.921875 33.015625 
L 88.921875 0 
L 79.890625 0 
L 79.890625 32.71875 
Q 79.890625 40.578125 77.09375 44.375 
Q 74.3125 48.1875 68.609375 48.1875 
Q 61.625 48.1875 57.5625 43.546875 
Q 53.515625 38.921875 53.515625 30.90625 
L 53.515625 0 
L 44.484375 0 
L 44.484375 32.71875 
Q 44.484375 40.625 41.703125 44.40625 
Q 38.921875 48.1875 33.109375 48.1875 
Q 26.21875 48.1875 22.15625 43.53125 
Q 18.109375 38.875 18.109375 30.90625 
L 18.109375 0 
L 9.078125 0 
L 9.078125 54.6875 
L 18.109375 54.6875 
L 18.109375 46.1875 
Q 21.1875 51.21875 25.484375 53.609375 
Q 29.78125 56 35.6875 56 
Q 41.65625 56 45.828125 52.96875 
Q 50 49.953125 52 44.1875 
z
" id="DejaVuSans-109"/>
     </defs>
     <g transform="translate(11.622231 172.015312)rotate(-90)scale(0.12 -0.12)">
      <use xlink:href="#DejaVuSans-82"/>
      <use x="64.982422" xlink:href="#DejaVuSans-101"/>
      <use x="126.505859" xlink:href="#DejaVuSans-115"/>
      <use x="178.605469" xlink:href="#DejaVuSans-105"/>
      <use x="206.388672" xlink:href="#DejaVuSans-100"/>
      <use x="269.865234" xlink:href="#DejaVuSans-117"/>
      <use x="333.244141" xlink:href="#DejaVuSans-97"/>
      <use x="394.523438" xlink:href="#DejaVuSans-108"/>
      <use x="422.306641" xlink:href="#DejaVuSans-32"/>
      <use x="454.09375" xlink:href="#DejaVuSans-110"/>
      <use x="517.472656" xlink:href="#DejaVuSans-111"/>
      <use x="578.654297" xlink:href="#DejaVuSans-114"/>
      <use x="618.017578" xlink:href="#DejaVuSans-109"/>
     </g>
    </g>
   </g>
   <g id="PathCollection_1">
    <defs>
     <path d="M 0 3 
C 0.795609 3 1.55874 2.683901 2.12132 2.12132 
C 2.683901 1.55874 3 0.795609 3 0 
C 3 -0.795609 2.683901 -1.55874 2.12132 -2.12132 
C 1.55874 -2.683901 0.795609 -3 0 -3 
C -0.795609 -3 -1.55874 -2.683901 -2.12132 -2.12132 
C -2.683901 -1.55874 -3 -0.795609 -3 0 
C -3 0.795609 -2.683901 1.55874 -2.12132 2.12132 
C -1.55874 2.683901 -0.795609 3 0 3 
z
" id="mebf0494293" style="stroke:#000000;"/>
    </defs>
    <g clip-path="url(#pf548a1aa5b)"/>
   </g>
   <g id="line2d_32">
    <path clip-path="url(#pf548a1aa5b)" d="M 65.684672 9.981175 
L 87.740539 35.297306 
L 109.796406 52.527735 
L 131.852272 66.346262 
L 153.908139 80.333701 
L 175.964006 93.817955 
L 198.019872 107.553877 
L 220.075739 121.152842 
L 242.131605 134.878008 
L 264.187472 148.572933 
L 286.243339 162.330922 
L 308.299205 176.086921 
L 330.355072 189.876304 
L 352.410938 203.672675 
L 374.466805 217.490831 
L 396.522672 231.319846 
L 418.578538 245.164333 
" style="fill:none;stroke:#e36f47;stroke-linecap:round;stroke-width:3;"/>
   </g>
   <g id="PathCollection_2">
    <defs>
     <path d="M -1.242641 3 
L 0 1.623588 
L 1.242641 3 
L 3 1.242641 
L 1.623588 0 
L 3 -1.242641 
L 1.242641 -3 
L 0 -1.623588 
L -1.242641 -3 
L -3 -1.242641 
L -1.623588 -0 
L -3 1.242641 
L -1.242641 3 
L -0 1.623588 
L -1.242641 3 
" id="m51ce641384" style="stroke:#000000;"/>
    </defs>
    <g clip-path="url(#pf548a1aa5b)">
     <use style="fill:#e36f47;stroke:#000000;" x="65.684672" xlink:href="#m51ce641384" y="9.981175"/>
     <use style="fill:#e36f47;stroke:#000000;" x="87.740539" xlink:href="#m51ce641384" y="35.297306"/>
     <use style="fill:#e36f47;stroke:#000000;" x="109.796406" xlink:href="#m51ce641384" y="52.527735"/>
     <use style="fill:#e36f47;stroke:#000000;" x="131.852272" xlink:href="#m51ce641384" y="66.346262"/>
     <use style="fill:#e36f47;stroke:#000000;" x="153.908139" xlink:href="#m51ce641384" y="80.333701"/>
     <use style="fill:#e36f47;stroke:#000000;" x="175.964006" xlink:href="#m51ce641384" y="93.817955"/>
     <use style="fill:#e36f47;stroke:#000000;" x="198.019872" xlink:href="#m51ce641384" y="107.553877"/>
     <use style="fill:#e36f47;stroke:#000000;" x="220.075739" xlink:href="#m51ce641384" y="121.152842"/>
     <use style="fill:#e36f47;stroke:#000000;" x="242.131605" xlink:href="#m51ce641384" y="134.878008"/>
     <use style="fill:#e36f47;stroke:#000000;" x="264.187472" xlink:href="#m51ce641384" y="148.572933"/>
     <use style="fill:#e36f47;stroke:#000000;" x="286.243339" xlink:href="#m51ce641384" y="162.330922"/>
     <use style="fill:#e36f47;stroke:#000000;" x="308.299205" xlink:href="#m51ce641384" y="176.086921"/>
     <use style="fill:#e36f47;stroke:#000000;" x="330.355072" xlink:href="#m51ce641384" y="189.876304"/>
     <use style="fill:#e36f47;stroke:#000000;" x="352.410938" xlink:href="#m51ce641384" y="203.672675"/>
     <use style="fill:#e36f47;stroke:#000000;" x="374.466805" xlink:href="#m51ce641384" y="217.490831"/>
     <use style="fill:#e36f47;stroke:#000000;" x="396.522672" xlink:href="#m51ce641384" y="231.319846"/>
     <use style="fill:#e36f47;stroke:#000000;" x="418.578538" xlink:href="#m51ce641384" y="245.164333"/>
    </g>
   </g>
   <g id="patch_3">
    <path d="M 55.097856 255.345354 
L 55.097856 2.834646 
" style="fill:none;stroke:#000000;stroke-linecap:square;stroke-linejoin:miter;"/>
   </g>
   <g id="patch_4">
    <path d="M 55.097856 255.345354 
L 429.165354 255.345354 
" style="fill:none;stroke:#000000;stroke-linecap:square;stroke-linejoin:miter;"/>
   </g>
   <g id="line2d_33">
    <path clip-path="url(#pf548a1aa5b)" d="M 65.684672 36.95842 
L 87.740539 53.923367 
L 109.796406 71.031854 
L 131.852272 82.165929 
L 153.908139 94.410068 
L 175.964006 104.940289 
L 198.019872 116.052969 
L 220.075739 128.764414 
L 242.131605 140.261488 
L 264.187472 153.224846 
L 286.243339 165.116472 
L 308.299205 176.894479 
L 330.355072 190.534049 
L 352.410938 201.760078 
L 374.466805 214.891999 
L 396.522672 227.812246 
" style="fill:none;stroke:#3ea44e;stroke-linecap:round;stroke-width:3;"/>
   </g>
   <g id="PathCollection_3">
    <defs>
     <path d="M 0 -3 
L -3 3 
L 3 3 
z
" id="ma0e444f065" style="stroke:#000000;"/>
    </defs>
    <g clip-path="url(#pf548a1aa5b)">
     <use style="fill:#3ea44e;stroke:#000000;" x="65.684672" xlink:href="#ma0e444f065" y="36.95842"/>
     <use style="fill:#3ea44e;stroke:#000000;" x="87.740539" xlink:href="#ma0e444f065" y="53.923367"/>
     <use style="fill:#3ea44e;stroke:#000000;" x="109.796406" xlink:href="#ma0e444f065" y="71.031854"/>
     <use style="fill:#3ea44e;stroke:#000000;" x="131.852272" xlink:href="#ma0e444f065" y="82.165929"/>
     <use style="fill:#3ea44e;stroke:#000000;" x="153.908139" xlink:href="#ma0e444f065" y="94.410068"/>
     <use style="fill:#3ea44e;stroke:#000000;" x="175.964006" xlink:href="#ma0e444f065" y="104.940289"/>
     <use style="fill:#3ea44e;stroke:#000000;" x="198.019872" xlink:href="#ma0e444f065" y="116.052969"/>
     <use style="fill:#3ea44e;stroke:#000000;" x="220.075739" xlink:href="#ma0e444f065" y="128.764414"/>
     <use style="fill:#3ea44e;stroke:#000000;" x="242.131605" xlink:href="#ma0e444f065" y="140.261488"/>
     <use style="fill:#3ea44e;stroke:#000000;" x="264.187472" xlink:href="#ma0e444f065" y="153.224846"/>
     <use style="fill:#3ea44e;stroke:#000000;" x="286.243339" xlink:href="#ma0e444f065" y="165.116472"/>
     <use style="fill:#3ea44e;stroke:#000000;" x="308.299205" xlink:href="#ma0e444f065" y="176.894479"/>
     <use style="fill:#3ea44e;stroke:#000000;" x="330.355072" xlink:href="#ma0e444f065" y="190.534049"/>
     <use style="fill:#3ea44e;stroke:#000000;" x="352.410938" xlink:href="#ma0e444f065" y="201.760078"/>
     <use style="fill:#3ea44e;stroke:#000000;" x="374.466805" xlink:href="#ma0e444f065" y="214.891999"/>
     <use style="fill:#3ea44e;stroke:#000000;" x="396.522672" xlink:href="#ma0e444f065" y="227.812246"/>
    </g>
   </g>
   <g id="line2d_34">
    <path clip-path="url(#pf548a1aa5b)" d="M 65.684672 38.925434 
L 87.740539 65.791987 
L 109.796406 76.494768 
L 131.852272 90.281677 
L 153.908139 108.411401 
L 175.964006 123.617959 
L 198.019872 143.328899 
L 220.075739 161.960946 
L 242.131605 179.704554 
L 264.187472 199.359799 
L 286.243339 216.746395 
L 308.299205 236.563033 
" style="fill:none;stroke:#c371d2;stroke-linecap:round;stroke-width:3;"/>
   </g>
   <g id="PathCollection_4">
    <defs>
     <path d="M -0 3 
L 3 -3 
L -3 -3 
z
" id="m9576d311e3" style="stroke:#000000;"/>
    </defs>
    <g clip-path="url(#pf548a1aa5b)">
     <use style="fill:#c371d2;stroke:#000000;" x="65.684672" xlink:href="#m9576d311e3" y="38.925434"/>
     <use style="fill:#c371d2;stroke:#000000;" x="87.740539" xlink:href="#m9576d311e3" y="65.791987"/>
     <use style="fill:#c371d2;stroke:#000000;" x="109.796406" xlink:href="#m9576d311e3" y="76.494768"/>
     <use style="fill:#c371d2;stroke:#000000;" x="131.852272" xlink:href="#m9576d311e3" y="90.281677"/>
     <use style="fill:#c371d2;stroke:#000000;" x="153.908139" xlink:href="#m9576d311e3" y="108.411401"/>
     <use style="fill:#c371d2;stroke:#000000;" x="175.964006" xlink:href="#m9576d311e3" y="123.617959"/>
     <use style="fill:#c371d2;stroke:#000000;" x="198.019872" xlink:href="#m9576d311e3" y="143.328899"/>
     <use style="fill:#c371d2;stroke:#000000;" x="220.075739" xlink:href="#m9576d311e3" y="161.960946"/>
     <use style="fill:#c371d2;stroke:#000000;" x="242.131605" xlink:href="#m9576d311e3" y="179.704554"/>
     <use style="fill:#c371d2;stroke:#000000;" x="264.187472" xlink:href="#m9576d311e3" y="199.359799"/>
     <use style="fill:#c371d2;stroke:#000000;" x="286.243339" xlink:href="#m9576d311e3" y="216.746395"/>
     <use style="fill:#c371d2;stroke:#000000;" x="308.299205" xlink:href="#m9576d311e3" y="236.563033"/>
    </g>
   </g>
   <g id="line2d_35">
    <path clip-path="url(#pf548a1aa5b)" d="M 65.684672 38.925434 
L 87.740539 65.791987 
L 109.796406 76.494768 
L 131.852272 90.281677 
L 153.908139 108.411401 
L 175.964006 123.617959 
L 198.019872 143.328899 
L 220.075739 161.960946 
L 242.131605 179.704554 
L 264.187472 199.359799 
L 286.243339 216.746395 
L 308.299205 236.563033 
" style="fill:none;stroke:#ac8e18;stroke-linecap:round;stroke-width:3;"/>
   </g>
   <g id="PathCollection_5">
    <defs>
     <path d="M 3 0 
L -1.5 -2.598076 
L -1.5 2.598076 
L 3 0 
L 3 0 
" id="mb1394eca0a" style="stroke:#000000;"/>
    </defs>
    <g clip-path="url(#pf548a1aa5b)">
     <use style="fill:#ac8e18;stroke:#000000;" x="65.684672" xlink:href="#mb1394eca0a" y="38.925434"/>
     <use style="fill:#ac8e18;stroke:#000000;" x="87.740539" xlink:href="#mb1394eca0a" y="65.791987"/>
     <use style="fill:#ac8e18;stroke:#000000;" x="109.796406" xlink:href="#mb1394eca0a" y="76.494768"/>
     <use style="fill:#ac8e18;stroke:#000000;" x="131.852272" xlink:href="#mb1394eca0a" y="90.281677"/>
     <use style="fill:#ac8e18;stroke:#000000;" x="153.908139" xlink:href="#mb1394eca0a" y="108.411401"/>
     <use style="fill:#ac8e18;stroke:#000000;" x="175.964006" xlink:href="#mb1394eca0a" y="123.617959"/>
     <use style="fill:#ac8e18;stroke:#000000;" x="198.019872" xlink:href="#mb1394eca0a" y="143.328899"/>
     <use style="fill:#ac8e18;stroke:#000000;" x="220.075739" xlink:href="#mb1394eca0a" y="161.960946"/>
     <use style="fill:#ac8e18;stroke:#000000;" x="242.131605" xlink:href="#mb1394eca0a" y="179.704554"/>
     <use style="fill:#ac8e18;stroke:#000000;" x="264.187472" xlink:href="#mb1394eca0a" y="199.359799"/>
     <use style="fill:#ac8e18;stroke:#000000;" x="286.243339" xlink:href="#mb1394eca0a" y="216.746395"/>
     <use style="fill:#ac8e18;stroke:#000000;" x="308.299205" xlink:href="#mb1394eca0a" y="236.563033"/>
    </g>
   </g>
   <g id="line2d_36">
    <path clip-path="url(#pf548a1aa5b)" d="M 65.684672 72.592229 
L 87.740539 91.606369 
L 109.796406 113.399223 
L 131.852272 136.78371 
L 153.908139 161.971174 
L 175.964006 191.239298 
L 198.019872 217.898851 
L 220.075739 248.198825 
" style="fill:none;stroke:#00aaae;stroke-linecap:round;stroke-width:3;"/>
   </g>
   <g id="PathCollection_6">
    <defs>
     <path d="M -3 -0 
L 1.5 2.598076 
L 1.5 -2.598076 
L -3 -0 
L -3 -0 
" id="mb5ddc406ef" style="stroke:#000000;"/>
    </defs>
    <g clip-path="url(#pf548a1aa5b)">
     <use style="fill:#00aaae;stroke:#000000;" x="65.684672" xlink:href="#mb5ddc406ef" y="72.592229"/>
     <use style="fill:#00aaae;stroke:#000000;" x="87.740539" xlink:href="#mb5ddc406ef" y="91.606369"/>
     <use style="fill:#00aaae;stroke:#000000;" x="109.796406" xlink:href="#mb5ddc406ef" y="113.399223"/>
     <use style="fill:#00aaae;stroke:#000000;" x="131.852272" xlink:href="#mb5ddc406ef" y="136.78371"/>
     <use style="fill:#00aaae;stroke:#000000;" x="153.908139" xlink:href="#mb5ddc406ef" y="161.971174"/>
     <use style="fill:#00aaae;stroke:#000000;" x="175.964006" xlink:href="#mb5ddc406ef" y="191.239298"/>
     <use style="fill:#00aaae;stroke:#000000;" x="198.019872" xlink:href="#mb5ddc406ef" y="217.898851"/>
     <use style="fill:#00aaae;stroke:#000000;" x="220.075739" xlink:href="#mb5ddc406ef" y="248.198825"/>
    </g>
   </g>
   <g id="legend_1">
    <g id="patch_5">
     <path d="M 254.830823 109.122146 
L 423.665354 109.122146 
L 423.665354 8.334646 
L 254.830823 8.334646 
z
" style="fill:#ffffff;stroke:#000000;stroke-linejoin:miter;"/>
    </g>
    <g id="line2d_37">
     <path d="M 259.230823 17.242927 
L 281.230823 17.242927 
" style="fill:none;stroke:#009afa;stroke-linecap:square;stroke-width:1.375;"/>
    </g>
    <g id="line2d_38">
     <defs>
      <path d="M 0 4.4 
C 1.166894 4.4 2.286151 3.936388 3.11127 3.11127 
C 3.936388 2.286151 4.4 1.166894 4.4 0 
C 4.4 -1.166894 3.936388 -2.286151 3.11127 -3.11127 
C 2.286151 -3.936388 1.166894 -4.4 0 -4.4 
C -1.166894 -4.4 -2.286151 -3.936388 -3.11127 -3.11127 
C -3.936388 -2.286151 -4.4 -1.166894 -4.4 0 
C -4.4 1.166894 -3.936388 2.286151 -3.11127 3.11127 
C -2.286151 3.936388 -1.166894 4.4 0 4.4 
z
" id="ma77b092ff1" style="stroke:#000000;stroke-width:1.466667;"/>
     </defs>
     <g>
      <use style="fill:#009afa;stroke:#000000;stroke-width:1.466667;" x="270.230823" xlink:href="#ma77b092ff1" y="17.242927"/>
     </g>
    </g>
    <g id="text_12">
     <!-- gauss_seidel -->
     <defs>
      <path d="M 45.40625 27.984375 
Q 45.40625 37.75 41.375 43.109375 
Q 37.359375 48.484375 30.078125 48.484375 
Q 22.859375 48.484375 18.828125 43.109375 
Q 14.796875 37.75 14.796875 27.984375 
Q 14.796875 18.265625 18.828125 12.890625 
Q 22.859375 7.515625 30.078125 7.515625 
Q 37.359375 7.515625 41.375 12.890625 
Q 45.40625 18.265625 45.40625 27.984375 
z
M 54.390625 6.78125 
Q 54.390625 -7.171875 48.1875 -13.984375 
Q 42 -20.796875 29.203125 -20.796875 
Q 24.46875 -20.796875 20.265625 -20.09375 
Q 16.0625 -19.390625 12.109375 -17.921875 
L 12.109375 -9.1875 
Q 16.0625 -11.328125 19.921875 -12.34375 
Q 23.78125 -13.375 27.78125 -13.375 
Q 36.625 -13.375 41.015625 -8.765625 
Q 45.40625 -4.15625 45.40625 5.171875 
L 45.40625 9.625 
Q 42.625 4.78125 38.28125 2.390625 
Q 33.9375 0 27.875 0 
Q 17.828125 0 11.671875 7.65625 
Q 5.515625 15.328125 5.515625 27.984375 
Q 5.515625 40.671875 11.671875 48.328125 
Q 17.828125 56 27.875 56 
Q 33.9375 56 38.28125 53.609375 
Q 42.625 51.21875 45.40625 46.390625 
L 45.40625 54.6875 
L 54.390625 54.6875 
z
" id="DejaVuSans-103"/>
      <path d="M 50.984375 -16.609375 
L 50.984375 -23.578125 
L -0.984375 -23.578125 
L -0.984375 -16.609375 
z
" id="DejaVuSans-95"/>
     </defs>
     <g transform="translate(290.030823 21.092927)scale(0.11 -0.11)">
      <use xlink:href="#DejaVuSans-103"/>
      <use x="63.476562" xlink:href="#DejaVuSans-97"/>
      <use x="124.755859" xlink:href="#DejaVuSans-117"/>
      <use x="188.134766" xlink:href="#DejaVuSans-115"/>
      <use x="240.234375" xlink:href="#DejaVuSans-115"/>
      <use x="292.333984" xlink:href="#DejaVuSans-95"/>
      <use x="342.333984" xlink:href="#DejaVuSans-115"/>
      <use x="394.433594" xlink:href="#DejaVuSans-101"/>
      <use x="455.957031" xlink:href="#DejaVuSans-105"/>
      <use x="483.740234" xlink:href="#DejaVuSans-100"/>
      <use x="547.216797" xlink:href="#DejaVuSans-101"/>
      <use x="608.740234" xlink:href="#DejaVuSans-108"/>
     </g>
    </g>
    <g id="line2d_39">
     <path d="M 259.230823 33.694802 
L 281.230823 33.694802 
" style="fill:none;stroke:#e36f47;stroke-linecap:square;stroke-width:1.375;"/>
    </g>
    <g id="line2d_40">
     <defs>
      <path d="M -1.82254 4.4 
L 0 2.381263 
L 1.82254 4.4 
L 4.4 1.82254 
L 2.381263 0 
L 4.4 -1.82254 
L 1.82254 -4.4 
L 0 -2.381263 
L -1.82254 -4.4 
L -4.4 -1.82254 
L -2.381263 -0 
L -4.4 1.82254 
L -1.82254 4.4 
L -0 2.381263 
L -1.82254 4.4 
" id="m7c7f5bd55c" style="stroke:#000000;stroke-width:1.466667;"/>
     </defs>
     <g>
      <use style="fill:#e36f47;stroke:#000000;stroke-width:1.466667;" x="270.230823" xlink:href="#m7c7f5bd55c" y="33.694802"/>
     </g>
    </g>
    <g id="text_13">
     <!-- GMG_GSSmoother -->
     <defs>
      <path d="M 59.515625 10.40625 
L 59.515625 29.984375 
L 43.40625 29.984375 
L 43.40625 38.09375 
L 69.28125 38.09375 
L 69.28125 6.78125 
Q 63.578125 2.734375 56.6875 0.65625 
Q 49.8125 -1.421875 42 -1.421875 
Q 24.90625 -1.421875 15.25 8.5625 
Q 5.609375 18.5625 5.609375 36.375 
Q 5.609375 54.25 15.25 64.234375 
Q 24.90625 74.21875 42 74.21875 
Q 49.125 74.21875 55.546875 72.453125 
Q 61.96875 70.703125 67.390625 67.28125 
L 67.390625 56.78125 
Q 61.921875 61.421875 55.765625 63.765625 
Q 49.609375 66.109375 42.828125 66.109375 
Q 29.4375 66.109375 22.71875 58.640625 
Q 16.015625 51.171875 16.015625 36.375 
Q 16.015625 21.625 22.71875 14.15625 
Q 29.4375 6.6875 42.828125 6.6875 
Q 48.046875 6.6875 52.140625 7.59375 
Q 56.25 8.5 59.515625 10.40625 
z
" id="DejaVuSans-71"/>
      <path d="M 9.8125 72.90625 
L 24.515625 72.90625 
L 43.109375 23.296875 
L 61.8125 72.90625 
L 76.515625 72.90625 
L 76.515625 0 
L 66.890625 0 
L 66.890625 64.015625 
L 48.09375 14.015625 
L 38.1875 14.015625 
L 19.390625 64.015625 
L 19.390625 0 
L 9.8125 0 
z
" id="DejaVuSans-77"/>
      <path d="M 53.515625 70.515625 
L 53.515625 60.890625 
Q 47.90625 63.578125 42.921875 64.890625 
Q 37.9375 66.21875 33.296875 66.21875 
Q 25.25 66.21875 20.875 63.09375 
Q 16.5 59.96875 16.5 54.203125 
Q 16.5 49.359375 19.40625 46.890625 
Q 22.3125 44.4375 30.421875 42.921875 
L 36.375 41.703125 
Q 47.40625 39.59375 52.65625 34.296875 
Q 57.90625 29 57.90625 20.125 
Q 57.90625 9.515625 50.796875 4.046875 
Q 43.703125 -1.421875 29.984375 -1.421875 
Q 24.8125 -1.421875 18.96875 -0.25 
Q 13.140625 0.921875 6.890625 3.21875 
L 6.890625 13.375 
Q 12.890625 10.015625 18.65625 8.296875 
Q 24.421875 6.59375 29.984375 6.59375 
Q 38.421875 6.59375 43.015625 9.90625 
Q 47.609375 13.234375 47.609375 19.390625 
Q 47.609375 24.75 44.3125 27.78125 
Q 41.015625 30.8125 33.5 32.328125 
L 27.484375 33.5 
Q 16.453125 35.6875 11.515625 40.375 
Q 6.59375 45.0625 6.59375 53.421875 
Q 6.59375 63.09375 13.40625 68.65625 
Q 20.21875 74.21875 32.171875 74.21875 
Q 37.3125 74.21875 42.625 73.28125 
Q 47.953125 72.359375 53.515625 70.515625 
z
" id="DejaVuSans-83"/>
      <path d="M 54.890625 33.015625 
L 54.890625 0 
L 45.90625 0 
L 45.90625 32.71875 
Q 45.90625 40.484375 42.875 44.328125 
Q 39.84375 48.1875 33.796875 48.1875 
Q 26.515625 48.1875 22.3125 43.546875 
Q 18.109375 38.921875 18.109375 30.90625 
L 18.109375 0 
L 9.078125 0 
L 9.078125 75.984375 
L 18.109375 75.984375 
L 18.109375 46.1875 
Q 21.34375 51.125 25.703125 53.5625 
Q 30.078125 56 35.796875 56 
Q 45.21875 56 50.046875 50.171875 
Q 54.890625 44.34375 54.890625 33.015625 
z
" id="DejaVuSans-104"/>
     </defs>
     <g transform="translate(290.030823 37.544802)scale(0.11 -0.11)">
      <use xlink:href="#DejaVuSans-71"/>
      <use x="77.490234" xlink:href="#DejaVuSans-77"/>
      <use x="163.769531" xlink:href="#DejaVuSans-71"/>
      <use x="241.259766" xlink:href="#DejaVuSans-95"/>
      <use x="291.259766" xlink:href="#DejaVuSans-71"/>
      <use x="368.75" xlink:href="#DejaVuSans-83"/>
      <use x="432.226562" xlink:href="#DejaVuSans-83"/>
      <use x="495.703125" xlink:href="#DejaVuSans-109"/>
      <use x="593.115234" xlink:href="#DejaVuSans-111"/>
      <use x="654.296875" xlink:href="#DejaVuSans-111"/>
      <use x="715.478516" xlink:href="#DejaVuSans-116"/>
      <use x="754.6875" xlink:href="#DejaVuSans-104"/>
      <use x="818.066406" xlink:href="#DejaVuSans-101"/>
      <use x="879.589844" xlink:href="#DejaVuSans-114"/>
     </g>
    </g>
    <g id="line2d_41">
     <path d="M 259.230823 50.146677 
L 281.230823 50.146677 
" style="fill:none;stroke:#3ea44e;stroke-linecap:square;stroke-width:1.375;"/>
    </g>
    <g id="line2d_42">
     <defs>
      <path d="M 0 -4.4 
L -4.4 4.4 
L 4.4 4.4 
z
" id="mf4c8cfc500" style="stroke:#000000;stroke-linejoin:miter;stroke-width:1.466667;"/>
     </defs>
     <g>
      <use style="fill:#3ea44e;stroke:#000000;stroke-linejoin:miter;stroke-width:1.466667;" x="270.230823" xlink:href="#mf4c8cfc500" y="50.146677"/>
     </g>
    </g>
    <g id="text_14">
     <!-- PCGAMG{SmoothA} -->
     <defs>
      <path d="M 19.671875 64.796875 
L 19.671875 37.40625 
L 32.078125 37.40625 
Q 38.96875 37.40625 42.71875 40.96875 
Q 46.484375 44.53125 46.484375 51.125 
Q 46.484375 57.671875 42.71875 61.234375 
Q 38.96875 64.796875 32.078125 64.796875 
z
M 9.8125 72.90625 
L 32.078125 72.90625 
Q 44.34375 72.90625 50.609375 67.359375 
Q 56.890625 61.8125 56.890625 51.125 
Q 56.890625 40.328125 50.609375 34.8125 
Q 44.34375 29.296875 32.078125 29.296875 
L 19.671875 29.296875 
L 19.671875 0 
L 9.8125 0 
z
" id="DejaVuSans-80"/>
      <path d="M 64.40625 67.28125 
L 64.40625 56.890625 
Q 59.421875 61.53125 53.78125 63.8125 
Q 48.140625 66.109375 41.796875 66.109375 
Q 29.296875 66.109375 22.65625 58.46875 
Q 16.015625 50.828125 16.015625 36.375 
Q 16.015625 21.96875 22.65625 14.328125 
Q 29.296875 6.6875 41.796875 6.6875 
Q 48.140625 6.6875 53.78125 8.984375 
Q 59.421875 11.28125 64.40625 15.921875 
L 64.40625 5.609375 
Q 59.234375 2.09375 53.4375 0.328125 
Q 47.65625 -1.421875 41.21875 -1.421875 
Q 24.65625 -1.421875 15.125 8.703125 
Q 5.609375 18.84375 5.609375 36.375 
Q 5.609375 53.953125 15.125 64.078125 
Q 24.65625 74.21875 41.21875 74.21875 
Q 47.75 74.21875 53.53125 72.484375 
Q 59.328125 70.75 64.40625 67.28125 
z
" id="DejaVuSans-67"/>
      <path d="M 34.1875 63.1875 
L 20.796875 26.90625 
L 47.609375 26.90625 
z
M 28.609375 72.90625 
L 39.796875 72.90625 
L 67.578125 0 
L 57.328125 0 
L 50.6875 18.703125 
L 17.828125 18.703125 
L 11.1875 0 
L 0.78125 0 
z
" id="DejaVuSans-65"/>
      <path d="M 51.125 -9.28125 
L 51.125 -16.3125 
L 48.09375 -16.3125 
Q 35.9375 -16.3125 31.8125 -12.6875 
Q 27.6875 -9.078125 27.6875 1.703125 
L 27.6875 13.375 
Q 27.6875 20.75 25.046875 23.578125 
Q 22.40625 26.421875 15.484375 26.421875 
L 12.5 26.421875 
L 12.5 33.40625 
L 15.484375 33.40625 
Q 22.46875 33.40625 25.078125 36.203125 
Q 27.6875 39.015625 27.6875 46.296875 
L 27.6875 58.015625 
Q 27.6875 68.796875 31.8125 72.390625 
Q 35.9375 75.984375 48.09375 75.984375 
L 51.125 75.984375 
L 51.125 69 
L 47.796875 69 
Q 40.921875 69 38.8125 66.84375 
Q 36.71875 64.703125 36.71875 57.8125 
L 36.71875 45.703125 
Q 36.71875 38.03125 34.5 34.5625 
Q 32.28125 31.109375 26.90625 29.890625 
Q 32.328125 28.5625 34.515625 25.09375 
Q 36.71875 21.625 36.71875 14.015625 
L 36.71875 1.90625 
Q 36.71875 -4.984375 38.8125 -7.125 
Q 40.921875 -9.28125 47.796875 -9.28125 
z
" id="DejaVuSans-123"/>
      <path d="M 12.5 -9.28125 
L 15.921875 -9.28125 
Q 22.75 -9.28125 24.828125 -7.171875 
Q 26.90625 -5.078125 26.90625 1.90625 
L 26.90625 14.015625 
Q 26.90625 21.625 29.09375 25.09375 
Q 31.296875 28.5625 36.71875 29.890625 
Q 31.296875 31.109375 29.09375 34.5625 
Q 26.90625 38.03125 26.90625 45.703125 
L 26.90625 57.8125 
Q 26.90625 64.75 24.828125 66.875 
Q 22.75 69 15.921875 69 
L 12.5 69 
L 12.5 75.984375 
L 15.578125 75.984375 
Q 27.734375 75.984375 31.8125 72.390625 
Q 35.890625 68.796875 35.890625 58.015625 
L 35.890625 46.296875 
Q 35.890625 39.015625 38.515625 36.203125 
Q 41.15625 33.40625 48.09375 33.40625 
L 51.125 33.40625 
L 51.125 26.421875 
L 48.09375 26.421875 
Q 41.15625 26.421875 38.515625 23.578125 
Q 35.890625 20.75 35.890625 13.375 
L 35.890625 1.703125 
Q 35.890625 -9.078125 31.8125 -12.6875 
Q 27.734375 -16.3125 15.578125 -16.3125 
L 12.5 -16.3125 
z
" id="DejaVuSans-125"/>
     </defs>
     <g transform="translate(290.030823 53.996677)scale(0.11 -0.11)">
      <use xlink:href="#DejaVuSans-80"/>
      <use x="60.302734" xlink:href="#DejaVuSans-67"/>
      <use x="130.126953" xlink:href="#DejaVuSans-71"/>
      <use x="207.617188" xlink:href="#DejaVuSans-65"/>
      <use x="276.025391" xlink:href="#DejaVuSans-77"/>
      <use x="362.304688" xlink:href="#DejaVuSans-71"/>
      <use x="439.794922" xlink:href="#DejaVuSans-123"/>
      <use x="503.417969" xlink:href="#DejaVuSans-83"/>
      <use x="566.894531" xlink:href="#DejaVuSans-109"/>
      <use x="664.306641" xlink:href="#DejaVuSans-111"/>
      <use x="725.488281" xlink:href="#DejaVuSans-111"/>
      <use x="786.669922" xlink:href="#DejaVuSans-116"/>
      <use x="825.878906" xlink:href="#DejaVuSans-104"/>
      <use x="889.257812" xlink:href="#DejaVuSans-65"/>
      <use x="957.666016" xlink:href="#DejaVuSans-125"/>
     </g>
    </g>
    <g id="line2d_43">
     <path d="M 259.230823 66.292614 
L 281.230823 66.292614 
" style="fill:none;stroke:#c371d2;stroke-linecap:square;stroke-width:1.375;"/>
    </g>
    <g id="line2d_44">
     <defs>
      <path d="M -0 4.4 
L 4.4 -4.4 
L -4.4 -4.4 
z
" id="mff2ebeb7c2" style="stroke:#000000;stroke-linejoin:miter;stroke-width:1.466667;"/>
     </defs>
     <g>
      <use style="fill:#c371d2;stroke:#000000;stroke-linejoin:miter;stroke-width:1.466667;" x="270.230823" xlink:href="#mff2ebeb7c2" y="66.292614"/>
     </g>
    </g>
    <g id="text_15">
     <!-- SparseAMG -->
     <defs>
      <path d="M 18.109375 8.203125 
L 18.109375 -20.796875 
L 9.078125 -20.796875 
L 9.078125 54.6875 
L 18.109375 54.6875 
L 18.109375 46.390625 
Q 20.953125 51.265625 25.265625 53.625 
Q 29.59375 56 35.59375 56 
Q 45.5625 56 51.78125 48.09375 
Q 58.015625 40.1875 58.015625 27.296875 
Q 58.015625 14.40625 51.78125 6.484375 
Q 45.5625 -1.421875 35.59375 -1.421875 
Q 29.59375 -1.421875 25.265625 0.953125 
Q 20.953125 3.328125 18.109375 8.203125 
z
M 48.6875 27.296875 
Q 48.6875 37.203125 44.609375 42.84375 
Q 40.53125 48.484375 33.40625 48.484375 
Q 26.265625 48.484375 22.1875 42.84375 
Q 18.109375 37.203125 18.109375 27.296875 
Q 18.109375 17.390625 22.1875 11.75 
Q 26.265625 6.109375 33.40625 6.109375 
Q 40.53125 6.109375 44.609375 11.75 
Q 48.6875 17.390625 48.6875 27.296875 
z
" id="DejaVuSans-112"/>
     </defs>
     <g transform="translate(290.030823 70.142614)scale(0.11 -0.11)">
      <use xlink:href="#DejaVuSans-83"/>
      <use x="63.476562" xlink:href="#DejaVuSans-112"/>
      <use x="126.953125" xlink:href="#DejaVuSans-97"/>
      <use x="188.232422" xlink:href="#DejaVuSans-114"/>
      <use x="229.345703" xlink:href="#DejaVuSans-115"/>
      <use x="281.445312" xlink:href="#DejaVuSans-101"/>
      <use x="342.96875" xlink:href="#DejaVuSans-65"/>
      <use x="411.376953" xlink:href="#DejaVuSans-77"/>
      <use x="497.65625" xlink:href="#DejaVuSans-71"/>
     </g>
    </g>
    <g id="line2d_45">
     <path d="M 259.230823 82.438552 
L 281.230823 82.438552 
" style="fill:none;stroke:#ac8e18;stroke-linecap:square;stroke-width:1.375;"/>
    </g>
    <g id="line2d_46">
     <defs>
      <path d="M 4.4 0 
L -2.2 -3.810512 
L -2.2 3.810512 
L 4.4 0 
L 4.4 0 
" id="m32fc506b42" style="stroke:#000000;stroke-width:1.466667;"/>
     </defs>
     <g>
      <use style="fill:#ac8e18;stroke:#000000;stroke-width:1.466667;" x="270.230823" xlink:href="#m32fc506b42" y="82.438552"/>
     </g>
    </g>
    <g id="text_16">
     <!-- PCGAMG{RugeStuben} -->
     <defs>
      <path d="M 48.6875 27.296875 
Q 48.6875 37.203125 44.609375 42.84375 
Q 40.53125 48.484375 33.40625 48.484375 
Q 26.265625 48.484375 22.1875 42.84375 
Q 18.109375 37.203125 18.109375 27.296875 
Q 18.109375 17.390625 22.1875 11.75 
Q 26.265625 6.109375 33.40625 6.109375 
Q 40.53125 6.109375 44.609375 11.75 
Q 48.6875 17.390625 48.6875 27.296875 
z
M 18.109375 46.390625 
Q 20.953125 51.265625 25.265625 53.625 
Q 29.59375 56 35.59375 56 
Q 45.5625 56 51.78125 48.09375 
Q 58.015625 40.1875 58.015625 27.296875 
Q 58.015625 14.40625 51.78125 6.484375 
Q 45.5625 -1.421875 35.59375 -1.421875 
Q 29.59375 -1.421875 25.265625 0.953125 
Q 20.953125 3.328125 18.109375 8.203125 
L 18.109375 0 
L 9.078125 0 
L 9.078125 75.984375 
L 18.109375 75.984375 
z
" id="DejaVuSans-98"/>
     </defs>
     <g transform="translate(290.030823 86.288552)scale(0.11 -0.11)">
      <use xlink:href="#DejaVuSans-80"/>
      <use x="60.302734" xlink:href="#DejaVuSans-67"/>
      <use x="130.126953" xlink:href="#DejaVuSans-71"/>
      <use x="207.617188" xlink:href="#DejaVuSans-65"/>
      <use x="276.025391" xlink:href="#DejaVuSans-77"/>
      <use x="362.304688" xlink:href="#DejaVuSans-71"/>
      <use x="439.794922" xlink:href="#DejaVuSans-123"/>
      <use x="503.417969" xlink:href="#DejaVuSans-82"/>
      <use x="568.400391" xlink:href="#DejaVuSans-117"/>
      <use x="631.779297" xlink:href="#DejaVuSans-103"/>
      <use x="695.255859" xlink:href="#DejaVuSans-101"/>
      <use x="756.779297" xlink:href="#DejaVuSans-83"/>
      <use x="820.255859" xlink:href="#DejaVuSans-116"/>
      <use x="859.464844" xlink:href="#DejaVuSans-117"/>
      <use x="922.84375" xlink:href="#DejaVuSans-98"/>
      <use x="986.320312" xlink:href="#DejaVuSans-101"/>
      <use x="1047.84375" xlink:href="#DejaVuSans-110"/>
      <use x="1111.222656" xlink:href="#DejaVuSans-125"/>
     </g>
    </g>
    <g id="line2d_47">
     <path d="M 259.230823 98.584489 
L 281.230823 98.584489 
" style="fill:none;stroke:#00aaae;stroke-linecap:square;stroke-width:1.375;"/>
    </g>
    <g id="line2d_48">
     <defs>
      <path d="M -4.4 -0 
L 2.2 3.810512 
L 2.2 -3.810512 
L -4.4 -0 
L -4.4 -0 
" id="m80aab774d6" style="stroke:#000000;stroke-width:1.466667;"/>
     </defs>
     <g>
      <use style="fill:#00aaae;stroke:#000000;stroke-width:1.466667;" x="270.230823" xlink:href="#m80aab774d6" y="98.584489"/>
     </g>
    </g>
    <g id="text_17">
     <!-- PCGILU -->
     <defs>
      <path d="M 9.8125 72.90625 
L 19.671875 72.90625 
L 19.671875 8.296875 
L 55.171875 8.296875 
L 55.171875 0 
L 9.8125 0 
z
" id="DejaVuSans-76"/>
      <path d="M 8.6875 72.90625 
L 18.609375 72.90625 
L 18.609375 28.609375 
Q 18.609375 16.890625 22.84375 11.734375 
Q 27.09375 6.59375 36.625 6.59375 
Q 46.09375 6.59375 50.34375 11.734375 
Q 54.59375 16.890625 54.59375 28.609375 
L 54.59375 72.90625 
L 64.5 72.90625 
L 64.5 27.390625 
Q 64.5 13.140625 57.4375 5.859375 
Q 50.390625 -1.421875 36.625 -1.421875 
Q 22.796875 -1.421875 15.734375 5.859375 
Q 8.6875 13.140625 8.6875 27.390625 
z
" id="DejaVuSans-85"/>
     </defs>
     <g transform="translate(290.030823 102.434489)scale(0.11 -0.11)">
      <use xlink:href="#DejaVuSans-80"/>
      <use x="60.302734" xlink:href="#DejaVuSans-67"/>
      <use x="130.126953" xlink:href="#DejaVuSans-71"/>
      <use x="207.617188" xlink:href="#DejaVuSans-73"/>
      <use x="237.109375" xlink:href="#DejaVuSans-76"/>
      <use x="287.822266" xlink:href="#DejaVuSans-85"/>
     </g>
    </g>
   </g>
  </g>
 </g>
 <defs>
  <clipPath id="pf548a1aa5b">
   <rect height="252.510709" width="374.067498" x="55.097856" y="2.834646"/>
  </clipPath>
 </defs>
</svg>
